<svg height="512" viewBox="0 0 32 32" width="512" xmlns="http://www.w3.org/2000/svg">
    <defs>
        <style>
            .cls-1{fill:#fff;}.cls-2{fill:none;}.cls-1,.cls-2{stroke:#7863ec;stroke-miterlimit:10;}
        </style>
    </defs>
    <title>Message Queue</title>
    <path class="cls-1" d="M10.59,8.51h11a1.5,1.5,0,1,1,0,3h-11a1.5,1.5,0,0,1,0-3Z"/>
    <path class="cls-1" d="M9.51,14.52h13a1.5,1.5,0,1,1,0,3h-13a1.5,1.5,0,0,1,0-3Z"/>
    <path class="cls-1" d="M10.6,20.51h11a1.5,1.5,0,0,1,0,3h-11a1.5,1.5,0,0,1,0-3Z"/>
    <path class="cls-2"
          d="M2,4.55H3.73A1.73,1.73,0,0,1,5.45,6.29V24a3.52,3.52,0,0,0,3.5,3.53H23A3.52,3.52,0,0,0,26.51,24V6.31a1.75,1.75,0,0,1,1.74-1.76H30"/>
</svg>