<?xml version="1.0" standalone="no"?>
<!DOCTYPE svg PUBLIC "-//W3C//DTD SVG 20010904//EN"
        "http://www.w3.org/TR/2001/REC-SVG-20010904/DTD/svg10.dtd">
<svg version="1.0" xmlns="http://www.w3.org/2000/svg"
     width="994.000000pt" height="994.000000pt" viewBox="0 0 994.000000 994.000000"
     preserveAspectRatio="xMidYMid meet">
    <metadata>
        Created by potrace 1.11, written by Peter Selinger 2001-2013
    </metadata>
    <g transform="translate(0.000000,994.000000) scale(0.100000,-0.100000)"
       fill="#000000" stroke="none">
        <path d="M5532 9838 c-11 -29 -31 -78 -45 -108 l-25 -56 -116 -23 c-64 -13
-116 -28 -116 -32 0 -4 8 -14 19 -21 41 -29 160 -141 157 -147 -3 -3 -7 -38
-11 -76 -7 -81 -14 -125 -21 -137 -3 -4 2 -8 10 -8 16 0 139 70 144 82 2 5 7
6 12 3 4 -3 13 2 20 10 7 8 18 15 25 15 12 0 126 -49 192 -82 13 -6 26 -9 29
-5 3 3 -3 43 -14 89 -37 154 -42 133 47 228 44 46 78 87 75 89 -6 6 -15 7
-105 15 -104 10 -129 13 -133 17 -2 2 -27 48 -57 101 -30 54 -57 98 -61 98 -4
0 -16 -24 -26 -52z"/>
        <path d="M4539 9838 c0 -7 0 -41 1 -74 1 -62 1 -62 -40 -90 -23 -16 -53 -38
-67 -49 l-25 -21 75 -23 c63 -20 77 -28 83 -50 4 -14 8 -28 9 -31 1 -3 7 -24
14 -47 6 -24 15 -43 19 -43 4 0 15 12 24 28 9 15 28 41 42 57 14 17 26 33 26
36 0 3 10 5 23 3 60 -9 127 -10 127 -1 0 5 -18 35 -41 67 l-40 57 25 73 c15
41 26 75 26 76 0 3 -21 -2 -40 -9 -8 -3 -36 -12 -62 -20 l-47 -15 -58 44 c-62
47 -73 51 -74 32z"/>
        <path d="M3674 9747 c-1 -12 -4 -85 -9 -162 -4 -77 -8 -147 -8 -155 0 -20 -26
-50 -44 -50 -7 0 -13 -4 -13 -10 0 -5 -4 -10 -8 -10 -4 0 -53 -30 -108 -66
-89 -59 -118 -87 -89 -90 13 -1 44 -14 136 -57 41 -19 91 -41 111 -51 40 -18
40 -17 63 -131 9 -44 18 -84 19 -90 1 -5 8 -40 16 -78 8 -37 17 -66 21 -65 4
2 46 55 93 118 123 163 110 151 158 146 24 -2 43 -5 43 -6 0 -1 23 -3 50 -5
71 -5 158 -15 173 -20 7 -3 12 4 12 15 0 11 -4 20 -9 20 -5 0 -14 12 -20 28
-10 27 -32 65 -98 174 -19 32 -35 66 -35 75 -1 10 26 88 59 173 34 85 60 156
58 158 -2 2 -23 -2 -46 -8 -24 -7 -51 -14 -59 -16 -8 -2 -42 -11 -75 -20 -33
-9 -67 -18 -75 -19 -8 -2 -15 -4 -15 -5 0 -1 -11 -4 -25 -6 -21 -3 -44 14
-136 103 -145 141 -140 137 -140 110z"/>
        <path d="M6440 9617 c0 -5 -160 -480 -163 -483 -2 -2 -27 -10 -57 -18 -30 -9
-89 -25 -130 -37 -41 -11 -88 -25 -105 -29 -59 -17 -180 -51 -194 -56 -11 -4
-9 -9 7 -24 12 -11 25 -20 31 -20 5 0 11 -3 13 -7 5 -12 127 -103 137 -103 5
0 11 -3 13 -8 3 -8 125 -102 132 -102 2 0 19 -14 38 -30 31 -28 34 -35 32 -78
-2 -26 -6 -117 -9 -202 -3 -85 -6 -179 -8 -207 -2 -38 1 -53 10 -53 7 0 13 4
13 9 0 5 9 13 20 16 11 3 26 12 33 18 13 13 28 23 142 102 39 27 72 52 75 55
13 16 131 90 144 90 8 0 25 -4 38 -10 42 -17 152 -58 278 -104 69 -24 133 -48
143 -51 25 -10 23 2 -29 162 -25 79 -45 146 -46 150 0 5 -12 40 -25 78 -35
100 -35 100 -1 142 66 83 81 103 182 232 58 74 104 137 102 139 -2 2 -120 4
-261 6 l-256 2 -70 104 c-38 58 -76 113 -84 123 -8 9 -15 19 -15 22 0 5 -62
98 -71 105 -3 3 -14 20 -24 38 -16 26 -35 42 -35 29z"/>
        <path d="M3009 9426 c0 -6 -2 -20 -5 -31 -2 -11 -5 -46 -7 -79 -4 -62 -18 -81
-79 -107 -16 -6 -28 -15 -28 -20 0 -5 -7 -9 -15 -9 -32 0 -12 -18 54 -49 58
-26 108 -61 88 -61 -3 0 -1 -17 4 -37 4 -21 11 -54 14 -73 3 -19 8 -36 9 -38
2 -2 25 26 52 62 43 59 55 70 75 68 62 -8 139 -11 139 -6 0 3 -18 37 -40 74
-44 75 -45 93 -9 158 10 17 17 32 14 32 -2 0 0 11 5 25 11 29 9 29 -45 11 -98
-34 -99 -33 -165 32 -33 32 -60 54 -61 48z"/>
        <path d="M4897 9392 c-8 -9 -22 -21 -29 -27 -31 -24 -113 -90 -118 -95 -3 -3
-26 -22 -52 -42 l-48 -36 -112 33 c-62 19 -134 40 -161 48 -26 8 -49 12 -51 8
-3 -4 1 -20 9 -36 22 -50 105 -269 105 -278 0 -5 -43 -71 -95 -148 -93 -136
-98 -149 -50 -140 5 2 56 4 115 7 58 3 122 7 142 9 33 3 41 -1 68 -33 42 -51
160 -203 160 -207 0 -3 -486 1 -500 4 -3 1 -16 19 -30 41 -14 22 -28 40 -32
40 -5 0 -8 5 -8 10 0 6 -48 81 -107 168 -125 185 -112 167 -118 160 -5 -5
-134 -380 -140 -408 -11 -52 -32 -82 -60 -86 -9 -2 -70 -19 -225 -65 -36 -11
-74 -21 -85 -23 -11 -3 -51 -14 -90 -26 -66 -21 -69 -23 -50 -37 11 -8 106
-79 210 -157 l190 -141 -4 -110 c-2 -60 -4 -149 -5 -197 0 -49 -5 -88 -9 -88
-4 0 -4 -7 1 -16 5 -8 6 -35 2 -60 -4 -24 -4 -44 0 -44 4 0 26 14 48 30 23 17
44 30 47 30 3 0 13 7 22 15 10 8 65 48 123 89 58 41 110 79 117 85 7 6 17 11
23 11 5 0 10 4 10 10 0 29 68 19 180 -27 8 -3 20 -7 25 -9 6 -1 48 -17 95 -34
179 -67 215 -78 218 -69 2 5 -4 32 -13 59 -9 28 -18 56 -19 63 -2 7 -6 19 -9
27 -5 11 -53 167 -62 200 -1 3 -5 13 -10 23 -12 28 -1 30 46 9 24 -11 67 -28
94 -38 28 -10 52 -19 54 -20 4 -4 52 -193 54 -211 0 -7 3 -13 7 -13 8 0 60 57
60 66 0 3 21 30 46 59 l47 54 51 -5 c28 -3 81 -6 117 -8 l67 -3 -63 96 c-65
101 -73 133 -39 171 7 8 13 18 13 23 1 7 2 11 6 25 3 13 25 63 35 82 9 17 7
18 -17 16 -16 -2 -28 -5 -28 -6 0 -2 -17 -6 -55 -14 -14 -3 -47 -12 -75 -20
-52 -16 -49 -17 -105 31 -14 12 -35 30 -47 40 -12 11 -33 28 -47 38 -14 11
-26 23 -26 28 0 18 77 106 94 106 11 1 16 6 13 15 -3 8 -3 17 1 20 3 4 7 12 8
19 4 16 9 38 30 112 21 78 25 94 31 128 6 30 22 39 133 77 36 12 79 29 97 36
17 8 37 14 45 14 7 1 24 7 36 14 23 12 21 15 -77 79 -56 37 -105 67 -109 67
-5 0 -17 9 -27 20 -10 11 -24 20 -31 20 -20 0 -23 24 -26 193 -2 88 -6 160 -9
162 -3 2 -13 -4 -22 -13z m-201 -1159 c-2 -43 -5 -95 -5 -115 -1 -33 -6 -40
-38 -58 -21 -11 -51 -29 -68 -40 -40 -26 -85 -51 -85 -48 0 2 -4 18 -9 35 -8
28 -6 37 21 70 30 38 38 49 119 153 48 61 63 79 66 80 2 0 1 -35 -1 -77z"/>
        <path d="M2489 9133 c-1 -21 -2 -60 -2 -87 l-2 -49 -68 -44 c-37 -24 -66 -47
-63 -52 3 -4 35 -21 70 -36 62 -27 75 -40 82 -85 2 -8 6 -31 10 -50 4 -19 8
-41 10 -48 5 -27 12 -22 60 43 l48 66 66 -4 c37 -2 71 -7 78 -10 27 -17 18 15
-21 79 l-43 69 22 58 c12 31 20 57 17 57 -3 0 2 11 10 24 9 13 14 26 11 29 -3
3 -32 -3 -65 -13 -32 -10 -59 -16 -59 -13 0 3 -6 1 -13 -5 -9 -8 -28 4 -74 49
-35 32 -65 59 -68 59 -3 0 -6 -17 -6 -37z"/>
        <path d="M2056 8966 c-9 -25 -23 -66 -31 -90 -9 -24 -18 -53 -20 -66 -2 -12
-10 -28 -16 -36 -7 -8 -9 -17 -6 -20 3 -3 -1 -17 -8 -31 -8 -15 -12 -30 -9
-35 3 -4 0 -8 -7 -8 -7 0 -9 -3 -6 -7 4 -3 2 -12 -5 -20 -6 -7 -8 -16 -5 -20
4 -3 3 -11 -1 -17 -5 -6 -15 -30 -22 -54 -15 -46 -18 -51 -52 -58 -29 -7 -39
-10 -58 -17 -18 -7 -105 -30 -105 -27 0 1 -13 -4 -30 -10 -16 -7 -37 -13 -45
-15 -8 -2 -40 -11 -70 -19 -30 -9 -76 -21 -102 -28 -27 -6 -48 -15 -48 -19 0
-4 55 -48 123 -98 67 -50 127 -94 132 -98 6 -5 43 -32 83 -62 l72 -53 -5 -172
c-4 -94 -8 -208 -9 -254 -2 -45 0 -84 4 -87 4 -2 46 24 94 60 47 35 86 62 86
59 0 -3 12 7 27 21 15 14 31 25 35 25 3 0 13 6 20 13 7 7 24 20 38 29 14 9 47
32 74 51 l49 34 121 -44 c66 -25 130 -48 141 -53 11 -5 49 -19 85 -30 36 -12
74 -26 85 -30 44 -18 55 -19 55 -6 0 7 -3 16 -7 20 -4 3 -8 14 -9 24 -2 16
-39 137 -105 335 -16 49 -29 94 -29 100 0 7 17 33 38 58 44 55 79 100 120 154
17 22 37 47 44 55 8 9 27 34 43 55 17 22 40 51 52 65 12 13 21 25 19 27 -2 2
-117 5 -257 7 -140 2 -257 5 -260 5 -3 1 -46 61 -94 134 -49 72 -92 134 -95
137 -3 3 -21 30 -40 60 -19 30 -37 57 -41 60 -3 3 -10 13 -16 24 -9 16 -12 13
-27 -28z"/>
        <path d="M7242 8926 c3 -14 2 -26 -1 -26 -3 0 -4 -24 -3 -54 4 -54 4 -55 -40
-85 -23 -17 -48 -35 -55 -41 -7 -5 -17 -10 -23 -10 -29 0 7 -21 70 -41 40 -13
72 -30 74 -38 3 -9 12 -42 21 -73 9 -32 20 -58 24 -58 4 0 14 11 21 25 7 14
17 25 22 25 4 0 8 4 8 10 0 5 10 21 22 36 21 23 29 25 93 24 38 -1 74 -2 78
-1 4 1 -12 29 -37 64 -24 34 -45 64 -47 67 -1 3 2 14 8 25 6 11 18 44 27 73
15 51 14 54 -2 47 -9 -4 -43 -15 -74 -25 l-58 -18 -66 50 c-64 49 -67 50 -62
24z"/>
        <path d="M7744 8895 c-3 -8 -4 -21 -1 -29 3 -8 3 -17 -1 -20 -3 -4 -6 -28 -7
-54 -1 -26 -3 -50 -4 -54 0 -4 -30 -26 -66 -49 -36 -23 -65 -44 -65 -46 0 -2
34 -20 75 -39 41 -19 75 -40 76 -47 1 -13 1 -16 19 -101 l12 -60 27 31 c14 17
39 47 54 67 27 35 29 36 90 32 34 -3 70 -8 80 -11 25 -10 21 3 -23 79 -22 37
-40 73 -40 80 1 6 14 44 29 84 18 45 25 72 17 72 -6 0 -41 -8 -78 -19 l-67
-18 -61 59 c-46 45 -62 55 -66 43z"/>
        <path d="M3101 8812 c-3 -92 -8 -163 -13 -166 -2 -2 -43 -27 -91 -56 -48 -29
-90 -57 -93 -62 -5 -7 33 -27 61 -32 6 -1 16 -5 22 -9 7 -5 21 -10 30 -12 34
-7 88 -30 95 -40 4 -5 19 -58 34 -118 21 -86 29 -106 39 -95 6 7 40 48 74 91
54 67 74 82 103 78 3 0 50 -3 103 -7 l96 -6 -27 44 c-15 23 -31 45 -35 46 -5
2 -9 8 -9 12 0 5 -13 29 -30 53 l-30 44 26 64 c14 35 32 78 39 94 26 59 27 68
8 60 -10 -4 -25 -8 -34 -10 -9 -2 -53 -13 -98 -25 l-81 -22 -73 58 c-39 33
-74 62 -75 67 -2 4 -12 11 -21 16 -16 9 -17 2 -20 -67z"/>
        <path d="M5775 8852 c-17 -15 -48 -40 -69 -57 -21 -16 -44 -34 -50 -40 -6 -5
-32 -26 -57 -47 l-45 -36 -70 20 c-38 11 -91 26 -119 34 -27 8 -60 17 -72 20
-12 2 -34 9 -49 14 -20 8 -25 7 -21 -2 101 -254 120 -309 109 -331 -6 -12 -50
-78 -97 -145 l-85 -124 151 7 c84 4 159 8 169 10 24 5 28 1 124 -125 49 -63
92 -116 97 -118 5 -2 9 -11 9 -20 1 -32 17 10 44 118 56 213 53 207 94 221 20
6 92 32 160 56 141 52 140 46 22 117 -36 22 -67 42 -70 45 -3 3 -20 15 -39 25
-19 11 -44 27 -56 38 -21 18 -23 34 -29 286 0 34 -5 62 -11 62 -5 0 -24 -13
-40 -28z"/>
        <path d="M8201 8568 c-7 -18 -15 -39 -17 -47 -1 -8 -6 -17 -11 -20 -4 -3 -9
-13 -11 -21 -8 -37 -41 -97 -53 -97 -22 -1 -211 -41 -216 -46 -2 -3 19 -24 46
-47 104 -89 128 -115 126 -135 -1 -11 -5 -50 -9 -86 -4 -36 -9 -77 -11 -92 -3
-14 -1 -28 4 -31 7 -5 152 76 185 103 8 7 43 -4 109 -34 135 -61 139 -62 128
-33 -5 13 -9 25 -9 28 -1 7 -11 57 -28 124 -15 66 -20 55 56 137 82 88 90 98
81 103 -8 6 -52 11 -171 20 -41 4 -58 10 -72 28 -10 13 -18 26 -18 30 0 12
-82 148 -89 148 -3 0 -13 -15 -20 -32z"/>
        <path d="M7572 8230 c-18 -16 -34 -30 -37 -30 -5 0 -44 -32 -74 -60 -9 -8 -37
-31 -61 -50 -25 -19 -50 -39 -56 -45 -6 -5 -26 -22 -45 -37 -19 -14 -45 -36
-58 -48 -28 -24 -58 -21 -171 18 -8 3 -19 6 -25 7 -5 2 -43 13 -84 25 -41 12
-81 23 -90 25 -9 2 -44 13 -78 23 -34 11 -64 18 -67 15 -2 -3 7 -33 21 -66 36
-89 36 -89 95 -237 29 -74 53 -137 53 -140 0 -3 4 -11 8 -17 5 -7 4 -13 -2
-13 -5 0 -11 -6 -13 -13 -2 -7 -50 -81 -108 -165 -58 -84 -110 -162 -116 -173
-7 -11 -17 -26 -23 -32 -26 -26 -12 -36 47 -32 61 5 225 14 359 19 l83 4 87
-115 c206 -270 226 -292 229 -263 1 6 3 13 4 18 2 4 4 12 5 17 1 6 4 17 8 25
4 13 12 40 23 85 1 8 35 136 50 195 23 88 36 125 46 131 7 5 46 20 88 34 41
15 138 49 215 77 77 28 146 51 154 51 12 0 0 13 -54 56 -6 4 -16 10 -21 12
-20 8 -289 184 -292 191 -2 5 -10 8 -17 8 -28 0 -34 41 -40 280 -3 135 -8 246
-9 247 -2 2 -17 -10 -34 -27z"/>
        <path d="M1305 8073 l1 -75 -42 -34 c-22 -19 -44 -34 -48 -34 -9 0 -40 -30
-35 -34 2 -1 35 -14 74 -27 l69 -24 21 -67 c11 -37 23 -69 26 -72 3 -3 25 21
49 54 l44 60 82 -2 c53 -2 80 1 76 7 -3 6 -24 35 -47 66 l-42 55 28 77 c15 42
26 77 25 77 0 0 -35 -11 -76 -24 l-75 -24 -30 21 c-16 12 -39 30 -50 40 -48
45 -52 42 -50 -40z"/>
        <path d="M5859 8113 c-1 -10 -2 -46 -3 -81 -1 -47 -5 -67 -18 -75 -9 -7 -26
-19 -38 -27 -12 -8 -35 -24 -50 -35 l-28 -21 72 -22 c39 -13 77 -31 83 -40 6
-10 16 -44 23 -75 7 -31 16 -57 19 -57 8 0 28 24 66 78 l30 42 72 -2 c40 -1
75 1 78 4 4 4 -12 32 -36 64 l-43 58 26 75 c15 42 26 77 25 78 -1 0 -36 -9
-77 -22 -58 -19 -77 -22 -90 -12 -8 6 -36 29 -62 50 -40 32 -48 36 -49 20z"/>
        <path d="M2872 7917 c-2 -34 -5 -80 -7 -102 -2 -22 -4 -59 -4 -82 -1 -40 -3
-43 -58 -74 -32 -18 -89 -52 -126 -75 l-68 -42 38 -17 c21 -9 47 -21 58 -25
11 -4 38 -15 60 -24 85 -34 100 -39 106 -38 3 1 14 -38 25 -86 22 -103 19 -91
27 -122 4 -14 8 -34 10 -45 1 -11 5 -22 8 -25 6 -6 54 47 147 161 42 53 21 50
241 33 l94 -7 -40 59 c-22 32 -57 88 -78 123 l-38 63 23 57 c13 31 34 79 47
108 31 70 43 103 38 103 -3 0 -66 -16 -141 -36 l-136 -36 -27 24 c-14 12 -30
27 -36 33 -17 17 -140 121 -150 127 -6 4 -11 -18 -13 -55z"/>
        <path d="M6374 7840 c1 -78 -3 -86 -59 -120 -21 -13 -47 -32 -56 -41 -15 -15
-11 -18 57 -38 70 -21 79 -28 90 -73 1 -5 3 -10 4 -13 4 -8 7 -17 15 -52 4
-18 11 -33 15 -33 4 0 26 27 49 60 l43 60 74 -1 c69 -1 106 8 77 18 -7 3 -13
11 -13 18 0 7 -4 15 -8 17 -5 2 -20 20 -34 41 l-26 39 24 61 c29 74 30 92 7
82 -10 -4 -44 -15 -76 -25 l-58 -18 -54 44 c-29 24 -58 44 -63 44 -5 0 -9 -31
-8 -70z"/>
        <path d="M8225 7888 c-3 -7 -7 -46 -9 -86 -2 -41 -8 -78 -14 -84 -5 -5 -38
-27 -72 -48 l-63 -39 68 -30 c37 -17 71 -31 76 -31 11 0 29 -66 43 -159 4 -21
26 -26 26 -7 0 9 3 16 8 16 4 0 23 23 42 50 l35 50 55 -5 c30 -3 64 -7 75 -9
35 -6 35 3 -6 73 -38 66 -47 100 -31 115 4 4 7 11 8 14 1 10 13 41 30 80 16
38 12 39 -62 17 -79 -24 -92 -21 -151 40 -33 35 -55 51 -58 43z"/>
        <path d="M5859 7663 c-1 -15 -2 -52 -2 -81 l0 -54 -63 -41 c-35 -23 -64 -45
-64 -49 0 -3 31 -16 70 -27 73 -22 85 -34 95 -92 3 -19 10 -38 15 -43 5 -5 6
-15 3 -22 -12 -32 18 -10 53 39 21 28 43 55 49 60 5 4 37 7 70 6 98 -1 101 0
65 39 -11 12 -20 24 -20 27 0 3 -9 15 -20 27 -25 27 -25 31 -1 101 11 32 17
57 14 57 -3 0 0 7 7 15 16 19 19 19 -70 -9 -58 -19 -78 -22 -90 -13 -8 6 -36
29 -62 50 l-48 39 -1 -29z"/>
        <path d="M8849 7593 c-6 -21 -24 -64 -39 -95 -15 -31 -26 -59 -23 -62 8 -7
-29 -24 -69 -30 -21 -3 -59 -11 -85 -17 -27 -6 -56 -12 -67 -15 -30 -6 -31
-13 -5 -32 22 -15 46 -36 130 -112 23 -21 27 -32 24 -60 -3 -19 -7 -59 -10
-90 -3 -30 -8 -67 -11 -82 -3 -16 -1 -28 4 -28 5 0 53 26 107 58 l97 59 95
-43 c52 -23 97 -45 100 -48 4 -3 12 -6 18 -6 8 0 7 21 -6 73 -10 39 -21 83
-23 97 -3 14 -8 34 -11 45 -4 15 11 37 58 87 34 37 73 79 85 93 l22 25 -28 1
c-93 3 -212 16 -220 24 -3 3 -29 47 -57 97 -28 51 -56 93 -62 95 -6 2 -17 -13
-24 -34z"/>
        <path d="M999 7568 c0 -18 -2 -64 -4 -103 -1 -38 -4 -108 -6 -154 l-3 -83 -41
-27 c-22 -14 -49 -31 -60 -38 -121 -73 -207 -128 -210 -133 -3 -4 69 -36 158
-70 90 -34 169 -65 176 -69 10 -7 70 -221 75 -273 1 -10 5 -21 9 -24 4 -4 7
-18 7 -30 0 -13 4 -25 8 -28 10 -6 7 -9 132 149 52 66 99 123 105 127 5 4 30
6 55 3 25 -2 90 -7 145 -10 55 -3 116 -8 136 -10 32 -3 36 -1 32 16 -3 10 -10
19 -15 19 -5 0 -6 5 -3 10 3 6 2 10 -4 10 -6 0 -17 15 -26 34 -9 18 -25 43
-35 54 -11 12 -20 23 -20 26 0 2 -20 35 -45 73 -25 37 -45 72 -45 76 0 5 6 23
14 40 38 87 116 284 116 295 0 13 -13 16 -24 5 -3 -4 -14 -8 -24 -9 -20 -3
-56 -12 -59 -14 -2 -2 -7 -4 -13 -5 -5 -1 -13 -4 -17 -5 -5 -1 -12 -2 -17 -1
-4 1 -14 -4 -22 -10 -8 -6 -14 -9 -14 -6 0 2 -37 -6 -82 -19 -68 -20 -84 -22
-97 -11 -9 7 -68 56 -131 108 -63 51 -121 99 -128 106 -19 19 -22 17 -23 -19z"/>
        <path d="M2403 7548 c-4 -7 -8 -17 -9 -23 -4 -16 -120 -361 -126 -371 -7 -13
-22 -68 -20 -76 1 -4 -35 -18 -81 -32 -132 -39 -336 -98 -355 -101 -9 -2 -17
-4 -17 -5 0 -1 -8 -3 -19 -5 -33 -6 -38 -21 -11 -35 14 -7 25 -17 25 -22 0 -4
5 -8 12 -8 6 0 18 -7 27 -15 9 -9 41 -34 71 -55 30 -22 60 -43 65 -48 6 -4 28
-21 50 -37 22 -17 44 -34 50 -38 5 -4 28 -21 51 -37 l41 -30 -2 -72 c-2 -40
-6 -158 -10 -262 -5 -155 -4 -187 7 -180 16 10 179 125 193 136 6 5 57 42 115
83 l106 74 244 -89 c135 -49 246 -87 248 -86 1 2 -2 14 -7 27 -14 33 -71 218
-77 248 -3 13 -10 34 -16 45 -6 12 -11 23 -11 26 1 6 -1 11 -25 87 l-20 62 64
83 c36 46 70 90 77 98 7 8 28 35 47 60 19 25 37 47 40 50 3 3 17 21 30 40 13
19 33 43 44 53 10 9 16 20 12 24 -6 7 -114 10 -413 12 l-103 1 -37 58 c-21 31
-40 59 -43 62 -3 3 -51 74 -107 158 -67 101 -104 148 -110 140z"/>
        <path d="M4625 7522 c-17 -15 -76 -64 -131 -109 l-102 -82 -163 48 c-90 27
-165 48 -166 47 -2 -2 24 -72 57 -157 59 -152 68 -184 52 -191 -5 -1 -47 -60
-95 -130 -84 -124 -88 -136 -44 -129 4 1 61 4 125 7 64 3 130 6 147 7 26 2 39
-11 130 -127 56 -72 106 -131 111 -133 5 -1 27 70 49 158 36 145 42 162 65
171 14 6 80 30 148 54 169 60 163 55 100 95 -29 18 -54 37 -56 41 -2 5 -8 8
-14 8 -6 0 -38 19 -72 43 -34 24 -69 46 -79 50 -14 5 -17 21 -18 109 -1 130
-6 238 -11 243 -2 2 -17 -8 -33 -23z"/>
        <path d="M1828 7449 l-3 -82 -63 -43 c-34 -23 -59 -45 -55 -47 5 -2 38 -14 74
-26 72 -24 73 -25 100 -123 7 -27 16 -48 19 -48 3 1 26 29 51 63 44 60 47 62
88 60 23 0 45 -3 48 -6 3 -3 16 -2 29 3 17 7 24 6 24 -2 0 -6 3 -8 6 -5 4 4
-14 36 -39 73 l-46 66 25 65 c29 78 30 87 7 78 -10 -4 -25 -8 -33 -10 -8 -2
-34 -10 -56 -17 -38 -14 -43 -13 -70 6 -16 11 -31 23 -34 26 -3 3 -19 16 -37
28 l-32 23 -3 -82z"/>
        <path d="M3529 7393 c-1 -10 -2 -38 -3 -63 -1 -25 -5 -50 -9 -57 -4 -6 -3 -14
3 -18 6 -4 7 -12 1 -24 -6 -10 -6 -23 -1 -31 10 -16 -10 -36 -64 -65 -20 -11
-36 -23 -36 -27 0 -5 -5 -8 -10 -8 -14 0 -92 -52 -86 -57 4 -5 149 -61 181
-71 27 -8 40 -23 43 -47 1 -11 12 -60 25 -110 l23 -89 43 54 c103 132 110 138
139 134 15 -3 59 -6 98 -8 39 -1 76 -6 82 -10 30 -18 16 20 -38 102 -33 50
-60 97 -60 105 0 13 16 53 55 142 18 40 22 60 12 64 -10 3 -62 -8 -114 -25
-96 -31 -96 -31 -194 51 -67 58 -89 72 -90 58z"/>
        <path d="M8209 7348 c0 -13 -2 -45 -3 -73 -2 -62 -4 -66 -72 -111 -30 -20 -52
-40 -47 -44 4 -4 33 -14 63 -24 65 -20 81 -28 83 -47 2 -8 6 -20 10 -26 5 -7
6 -13 2 -13 -3 0 1 -15 8 -32 14 -34 17 -43 17 -55 0 -7 21 18 67 80 l33 44
80 -2 79 -2 -42 61 c-23 33 -45 63 -50 64 -4 2 -5 8 -2 12 3 5 17 38 30 75
l25 65 -23 -4 c-12 -3 -46 -12 -75 -21 -54 -16 -54 -16 -91 10 -21 14 -47 34
-59 45 -27 25 -32 25 -33 -2z"/>
        <path d="M6435 7158 c-4 -13 -8 -25 -9 -28 -9 -21 -29 -97 -28 -102 1 -5 -2
-8 -8 -8 -5 0 -9 -3 -8 -7 4 -12 -93 -300 -106 -317 -6 -9 -20 -17 -31 -19
-11 -2 -27 -7 -35 -10 -12 -5 -68 -21 -112 -33 -5 -1 -9 -2 -10 -4 -2 -1 -12
-3 -23 -5 -11 -1 -67 -17 -125 -34 -118 -36 -130 -39 -147 -40 -24 -2 -13 -16
43 -56 31 -22 68 -50 83 -62 14 -13 32 -23 39 -23 7 0 10 -4 7 -10 -3 -5 -1
-10 5 -10 9 0 95 -59 137 -95 6 -5 29 -23 51 -38 36 -26 38 -32 36 -70 -1 -23
-5 -129 -9 -236 -3 -107 -8 -198 -11 -202 -3 -5 -1 -15 3 -23 6 -11 55 19 217
134 l209 149 96 -35 c53 -20 101 -36 108 -38 7 -1 16 -5 19 -9 4 -4 14 -7 22
-7 8 0 28 -6 45 -14 89 -40 197 -73 197 -61 0 12 -49 171 -87 285 -8 25 -16
50 -17 55 -1 6 -11 35 -21 65 -10 30 -19 62 -19 70 0 13 83 133 104 150 16 13
202 260 201 267 -1 4 -116 8 -258 10 -218 1 -258 4 -265 17 -8 14 -80 122
-220 329 -33 48 -61 87 -63 87 -1 0 -6 -10 -10 -22z"/>
        <path d="M5831 7164 c1 -5 1 -43 0 -85 l-1 -77 -60 -38 c-33 -22 -60 -45 -60
-51 0 -7 3 -12 8 -11 4 1 35 -7 68 -18 l62 -18 24 -80 24 -79 48 66 49 65 73
-3 c41 -1 76 1 79 5 2 4 -7 20 -20 34 -14 15 -25 29 -25 32 0 3 -9 18 -21 33
-16 22 -19 33 -11 47 6 11 10 21 10 24 0 3 6 19 12 35 19 50 23 78 8 69 -7 -5
-17 -9 -23 -10 -5 -1 -34 -10 -63 -19 -58 -19 -47 -23 -135 49 -26 21 -47 35
-46 30z"/>
        <path d="M7959 7036 c7 -8 8 -17 4 -19 -5 -3 -8 -32 -6 -65 l2 -60 -65 -42
c-35 -23 -64 -44 -64 -45 0 -2 33 -15 74 -30 71 -26 82 -35 90 -80 8 -41 29
-95 37 -95 6 0 7 5 4 10 -3 6 -2 10 2 10 5 0 16 12 25 28 9 15 28 39 41 53 23
24 30 25 101 22 l78 -3 -46 64 c-47 65 -51 90 -24 139 17 32 27 77 18 77 -5 0
-39 -11 -75 -24 -36 -13 -65 -19 -65 -14 0 5 -5 6 -10 3 -6 -3 -13 1 -16 9 -3
9 -11 16 -16 16 -6 0 -26 14 -45 30 -35 31 -66 42 -44 16z"/>
        <path d="M7671 6908 c-25 -59 -143 -375 -145 -387 -2 -8 -9 -18 -17 -22 -10
-6 -158 -44 -249 -64 -3 -1 -23 -5 -45 -10 -56 -13 -55 -12 -57 -15 -3 -2 -18
-6 -57 -14 -13 -3 -25 -7 -28 -9 -2 -2 18 -22 44 -43 27 -21 53 -43 59 -49 29
-25 55 -45 60 -45 3 0 15 -10 28 -22 34 -33 65 -58 72 -58 4 0 14 -8 23 -18 9
-10 28 -26 42 -36 24 -15 26 -22 24 -74 -4 -75 -23 -329 -29 -384 -4 -34 -12
-38 214 112 l175 116 40 -15 c22 -8 41 -18 43 -23 2 -4 10 -4 18 -1 8 3 14 0
14 -6 0 -6 6 -11 14 -11 7 0 31 -8 52 -17 22 -9 44 -17 49 -19 6 -1 33 -12 60
-24 84 -37 89 -39 119 -50 25 -9 28 -8 21 7 -4 10 -9 29 -11 42 -3 14 -7 28
-10 33 -3 4 -7 16 -9 25 -5 27 -20 86 -57 221 -23 85 -29 125 -22 130 6 4 39
41 73 82 34 41 72 86 84 100 96 112 128 152 125 155 -2 2 -66 7 -143 10 -77 4
-171 8 -210 10 -38 2 -78 4 -87 5 -9 0 -32 24 -51 53 -66 102 -187 298 -187
303 0 3 -7 12 -15 20 -13 14 -16 13 -24 -8z"/>
        <path d="M481 6787 c-2 -29 -4 -80 -5 -115 -2 -35 -8 -68 -14 -74 -7 -7 -49
-35 -94 -63 -46 -29 -82 -56 -81 -61 0 -5 23 -17 50 -27 26 -10 73 -29 103
-41 l55 -22 18 -74 c34 -137 36 -127 -20 -124 -42 2 -152 11 -221 19 -12 1
-25 -1 -27 -6 -3 -4 24 -53 60 -108 36 -55 65 -105 65 -111 0 -5 4 -10 9 -10
5 0 14 -13 21 -30 7 -16 16 -30 21 -30 5 0 9 -4 9 -10 0 -5 34 -62 76 -126 41
-63 77 -121 80 -128 4 -10 -46 -135 -116 -291 -30 -67 -82 -189 -84 -200 -2
-5 -14 -35 -28 -65 -14 -30 -24 -58 -22 -62 2 -3 19 -2 37 3 17 6 43 12 57 15
14 3 39 9 55 14 17 5 41 12 55 14 14 3 52 12 85 21 33 9 69 18 80 20 11 2 21
4 23 5 1 2 7 4 12 5 6 1 11 3 13 4 1 2 13 4 27 6 14 2 64 15 112 28 l87 23 55
-47 c31 -26 62 -54 70 -61 7 -7 39 -35 72 -63 32 -27 65 -57 74 -65 8 -8 42
-37 75 -65 33 -27 69 -59 81 -70 41 -39 76 -66 79 -63 4 3 11 109 20 278 3 52
8 122 10 155 3 33 8 98 10 144 3 46 6 85 8 87 3 3 338 204 374 225 17 10 50
29 72 43 22 15 48 26 57 26 9 0 58 -14 110 -32 100 -34 102 -36 120 -125 2
-10 16 -57 30 -102 2 -7 30 22 66 70 34 46 65 86 69 89 5 3 25 5 46 4 21 -1
46 -3 56 -3 17 -1 18 -8 14 -73 -4 -55 -9 -75 -23 -84 -11 -8 -23 -17 -29 -21
-5 -5 -31 -21 -57 -36 -27 -15 -48 -31 -48 -36 0 -7 133 -73 152 -75 12 -2 17
-11 23 -44 11 -66 34 -154 41 -161 4 -3 9 -1 11 6 2 6 27 42 55 78 l50 67 62
-6 c33 -3 76 -8 94 -11 17 -2 32 -2 32 1 0 3 -23 44 -50 91 l-50 85 19 44 c11
24 17 44 14 44 -3 0 -1 6 5 13 13 16 32 87 24 87 -4 0 -44 -10 -90 -21 l-83
-22 -33 34 c-19 19 -32 37 -30 40 2 4 -16 36 -41 70 -73 104 -76 111 -60 143
8 14 14 29 15 31 1 10 8 32 25 78 9 27 15 50 13 53 -3 2 -44 -10 -93 -26 -49
-17 -95 -30 -102 -30 -13 0 -145 98 -151 112 -2 5 -9 8 -16 8 -10 0 -13 -23
-14 -87 0 -128 -1 -133 -16 -133 -8 0 -16 -4 -18 -8 -5 -13 -65 -52 -80 -52
-8 0 -52 16 -98 36 -47 19 -92 37 -100 39 -8 1 -31 10 -50 18 -19 8 -57 24
-85 35 -27 11 -77 31 -110 45 -33 14 -84 33 -114 44 -61 21 -66 28 -85 143 -1
8 -6 25 -10 37 -14 43 -15 63 -2 63 7 0 16 -3 20 -7 4 -5 11 -8 14 -8 22 -1
103 -29 111 -39 5 -6 17 -38 27 -71 9 -33 18 -62 19 -65 1 -3 5 -17 9 -32 5
-16 11 -28 15 -28 3 0 20 21 36 45 17 25 33 45 38 45 4 0 7 5 7 10 0 10 7 21
36 54 9 9 42 12 118 11 l106 -2 -18 29 c-9 16 -24 37 -32 47 -8 9 -19 24 -25
33 -5 8 -18 27 -29 42 -19 26 -18 27 17 126 25 69 32 100 23 100 -7 0 -46 -11
-87 -25 -41 -14 -83 -26 -95 -27 -11 -1 -53 23 -96 56 -42 32 -80 58 -84 57
-5 0 -9 -47 -9 -103 l0 -103 -69 -47 c-38 -26 -71 -46 -73 -44 -2 2 -6 13 -8
25 -2 13 -6 30 -9 39 -5 18 -16 66 -20 92 -1 8 -5 24 -9 35 -3 11 -9 34 -12
50 -3 17 -11 55 -18 84 l-13 55 -26 -30 c-33 -37 -92 -107 -143 -169 -22 -27
-50 -60 -62 -74 -12 -14 -46 -55 -75 -91 -29 -36 -61 -74 -72 -85 -10 -11 -25
-30 -34 -43 -17 -25 2 -25 -222 -6 -147 13 -139 11 -120 27 9 7 31 33 50 60
18 26 37 47 41 47 4 0 11 9 14 20 6 19 12 20 117 15 61 -3 115 -8 120 -11 4
-3 8 0 8 6 0 13 -101 173 -112 178 -11 5 -10 40 1 46 5 3 11 16 15 29 3 13 13
41 23 63 9 21 17 42 17 46 1 3 4 10 9 14 4 4 7 15 7 25 0 15 -10 14 -97 -12
-111 -32 -136 -35 -152 -15 -6 8 -45 41 -85 74 l-73 61 -2 -52z"/>
        <path d="M8572 6752 c-1 -43 -5 -84 -8 -93 -4 -16 -108 -89 -125 -89 -28 0 0
-21 65 -50 77 -33 76 -32 90 -106 3 -12 9 -38 14 -57 6 -20 7 -38 4 -41 -3 -3
-3 -6 1 -6 3 0 27 28 53 63 55 71 63 78 84 72 33 -9 130 -15 130 -7 0 4 -18
38 -40 77 -45 76 -46 62 9 199 7 16 10 30 9 31 -2 2 -37 -5 -78 -16 l-75 -18
-24 22 c-13 12 -36 33 -50 47 -57 55 -56 55 -59 -28z"/>
        <path d="M3219 6768 c-1 -29 0 -63 0 -74 2 -26 -12 -41 -79 -84 -51 -33 -52
-34 -29 -45 13 -7 46 -18 73 -26 46 -13 59 -27 70 -74 2 -5 6 -17 9 -25 3 -8
8 -28 12 -44 l6 -30 22 26 c12 14 29 36 37 49 36 53 42 56 125 51 l78 -4 -18
29 c-10 15 -23 33 -29 40 -34 39 -39 48 -39 72 0 14 10 50 21 80 12 30 20 57
17 59 -2 2 -38 -7 -79 -21 -42 -13 -76 -21 -76 -17 0 5 -66 57 -107 83 -10 6
-13 -5 -14 -45z"/>
        <path d="M9148 6818 c0 -2 -2 -34 -4 -73 -1 -38 -3 -73 -3 -77 -1 -4 -30 -27
-66 -51 l-65 -44 78 -27 78 -27 14 -52 c7 -29 18 -63 25 -76 l12 -25 12 22
c16 30 31 28 25 -4 -3 -15 -6 -65 -8 -111 l-3 -85 -94 -59 c-52 -33 -95 -63
-97 -67 -1 -4 46 -25 104 -47 l107 -40 14 -55 c20 -77 23 -91 29 -125 10 -57
12 -56 101 55 68 86 58 80 136 74 111 -9 161 -10 159 -1 -1 4 -23 40 -50 80
-78 115 -76 108 -47 177 55 130 65 159 52 155 -60 -22 -222 -63 -227 -57 -3 4
-30 27 -60 52 -84 69 -110 93 -110 101 0 4 11 20 24 36 23 28 28 29 100 26 42
-1 76 1 76 4 0 3 -18 30 -40 59 -22 29 -40 62 -40 73 0 10 10 44 21 75 12 31
20 59 17 62 -3 3 -34 -4 -69 -15 -76 -25 -80 -26 -105 -3 -28 25 -94 73 -96
70z"/>
        <path d="M3804 6667 c-24 -50 -58 -112 -64 -117 -3 -3 -12 -19 -19 -37 -21
-52 -20 -52 -186 -69 -33 -3 -68 -7 -77 -7 -10 -1 -18 -4 -18 -8 0 -4 38 -46
84 -95 59 -62 83 -94 81 -109 -6 -36 -15 -80 -21 -95 -3 -8 -8 -33 -11 -55 -3
-22 -9 -50 -14 -62 -5 -13 -5 -23 0 -23 7 0 175 78 211 99 16 9 100 -26 100
-41 0 -4 5 -8 11 -8 6 0 37 -16 69 -35 32 -19 60 -35 63 -35 5 0 3 33 -8 110
-13 85 -17 160 -9 160 5 0 34 23 64 51 30 28 67 60 82 72 29 23 36 43 16 44
-16 1 -66 10 -93 16 -11 3 -40 8 -65 12 -25 3 -52 8 -61 11 -9 3 -39 55 -69
124 -29 66 -53 120 -54 120 0 0 -6 -10 -12 -23z"/>
        <path d="M4672 6444 c-50 -86 -50 -86 -130 -87 -39 -1 -72 -6 -72 -11 0 -4 19
-31 42 -59 48 -56 51 -68 37 -117 -6 -19 -13 -50 -16 -68 -5 -33 -4 -33 19
-21 12 7 28 14 33 15 6 1 27 9 48 18 41 18 48 16 124 -35 23 -16 44 -29 47
-29 4 0 0 101 -4 108 -1 1 -2 13 -3 26 -1 17 14 35 53 67 62 51 72 69 38 69
-14 0 -47 7 -75 15 -51 15 -52 16 -78 85 -15 39 -29 70 -31 70 -3 0 -17 -21
-32 -46z"/>
        <path d="M3260 6335 c0 -8 -4 -15 -10 -15 -5 0 -9 -3 -8 -7 3 -9 -132 -374
-142 -386 -4 -5 -16 -10 -26 -12 -11 -2 -19 -4 -19 -6 0 -1 -9 -3 -20 -5 -11
-1 -30 -5 -42 -8 -13 -3 -32 -8 -44 -11 -11 -2 -29 -7 -39 -10 -10 -3 -29 -8
-42 -11 -119 -26 -202 -50 -204 -59 -3 -9 27 -34 164 -142 142 -110 192 -155
187 -163 -3 -4 -7 -43 -10 -86 -7 -107 -13 -195 -20 -281 -3 -40 -4 -73 -2
-73 14 0 140 80 145 93 2 4 8 7 14 7 5 0 20 8 33 18 12 9 31 23 41 29 11 7 49
32 85 57 l67 43 72 -28 c40 -15 74 -30 76 -32 5 -5 -17 -29 -93 -101 -40 -38
-66 -55 -74 -50 -12 7 -51 15 -86 17 -7 0 -13 4 -13 8 0 5 -7 6 -15 3 -8 -3
-20 -2 -27 2 -15 9 -58 12 -63 4 -2 -3 18 -50 45 -104 l49 -98 -36 -67 c-20
-36 -45 -79 -55 -96 -10 -16 -18 -34 -18 -38 0 -4 26 -5 58 0 31 4 72 7 90 8
17 0 32 2 32 5 0 3 11 7 24 8 18 1 43 -18 104 -84 44 -47 82 -82 85 -77 4 7
16 70 23 128 1 11 3 21 4 23 2 1 4 11 5 22 1 11 4 23 5 28 1 4 2 10 1 14 -1 7
46 30 157 78 28 12 52 26 52 30 0 5 -45 31 -100 60 -55 28 -101 54 -101 58 -1
4 -3 25 -4 47 -2 22 -4 40 -5 40 -1 0 -4 28 -7 62 l-4 61 116 -49 c64 -27 120
-49 125 -49 9 0 -1 43 -45 205 -70 258 -67 243 -48 263 10 9 38 42 63 71 25
29 52 62 62 73 9 10 31 37 50 60 18 23 48 57 65 77 33 36 40 50 26 52 -28 2
-151 8 -288 14 -88 3 -160 7 -161 8 -9 10 -226 360 -230 372 -8 19 -24 20 -24
0z"/>
        <path d="M5842 6183 c-1 -126 -2 -129 -65 -172 -32 -23 -62 -41 -67 -41 -28 0
-2 -20 64 -49 l73 -33 12 -51 c6 -29 14 -63 17 -77 3 -14 6 -31 6 -37 1 -7 2
-13 4 -13 1 0 24 29 50 65 26 36 55 66 63 67 18 1 27 1 99 -6 28 -3 52 -1 52
4 0 4 -18 38 -40 74 -22 36 -40 69 -40 73 0 5 14 41 30 82 17 40 30 75 30 77
0 2 -10 2 -22 0 -13 -3 -23 -5 -23 -6 0 -1 -7 -3 -15 -5 -8 -1 -34 -8 -57 -14
l-42 -11 -56 55 c-31 30 -60 55 -65 55 -4 0 -8 -17 -8 -37z"/>
        <path d="M8719 6189 c-1 -2 -2 -39 -3 -81 -1 -43 -4 -79 -7 -81 -2 -1 -30 -20
-61 -42 -32 -21 -58 -41 -58 -45 0 -3 21 -12 48 -20 26 -7 49 -14 52 -15 3 -2
15 -6 26 -10 14 -4 25 -19 29 -38 4 -18 9 -34 10 -37 1 -3 5 -18 10 -35 13
-49 15 -49 62 14 25 34 48 61 51 62 33 5 132 2 132 -4 0 -5 5 -5 10 -2 16 10
13 17 -30 74 -22 29 -40 60 -40 70 0 9 9 40 20 69 26 67 25 76 -2 68 -13 -4
-27 -8 -33 -9 -5 -1 -25 -9 -43 -16 -29 -12 -38 -12 -68 2 -19 9 -34 21 -34
27 0 5 -5 10 -12 10 -6 0 -22 10 -35 22 -13 12 -23 20 -24 17z"/>
        <path d="M4248 6139 c-1 -13 -3 -40 -4 -59 -2 -19 -5 -57 -8 -85 -2 -27 -4
-69 -5 -92 0 -24 -6 -43 -11 -43 -6 0 -36 -16 -66 -35 -30 -19 -57 -35 -59
-35 -3 0 -30 -16 -61 -37 l-55 -36 131 -52 c140 -56 140 -56 144 -77 2 -7 6
-24 9 -38 4 -14 9 -36 11 -50 7 -38 17 -81 32 -142 1 -5 2 -14 3 -20 1 -13 26
12 111 113 25 29 54 64 66 78 11 13 25 21 31 18 8 -5 10 -58 3 -77 -1 -3 -3
-27 -4 -55 -2 -27 -3 -55 -4 -62 -1 -6 -19 -22 -39 -34 -21 -13 -40 -26 -43
-29 -3 -3 -22 -17 -43 -29 l-39 -24 91 -40 c96 -42 91 -36 105 -117 1 -8 8
-41 16 -72 l13 -57 59 79 59 79 52 -4 c29 -3 71 -7 94 -9 42 -4 42 -4 32 22
-6 15 -16 34 -23 42 -24 29 -63 115 -58 130 2 8 12 33 22 55 30 69 43 115 32
115 -12 -1 -152 -39 -161 -44 -4 -3 -38 26 -76 64 -56 56 -64 69 -45 65 14 -3
54 -7 90 -10 36 -3 80 -7 97 -10 18 -2 35 0 38 6 4 5 1 9 -4 9 -6 0 -11 6 -11
13 0 10 -44 83 -68 112 -5 6 -21 32 -36 58 l-28 47 51 120 c69 160 66 149 44
145 -10 -2 -18 -4 -18 -5 0 -1 -11 -4 -25 -6 -14 -2 -56 -13 -95 -24 -125 -34
-122 -35 -184 18 -31 25 -58 49 -61 52 -3 3 -26 25 -52 49 -46 41 -48 42 -50
20z"/>
        <path d="M7290 5793 c-14 -9 -29 -22 -35 -29 -8 -9 -158 -132 -191 -156 -6 -4
-57 6 -115 23 -57 17 -128 37 -158 45 -29 8 -57 17 -62 20 -10 6 13 -63 41
-123 11 -24 20 -47 20 -51 0 -5 13 -40 29 -78 l28 -69 -91 -135 c-50 -74 -94
-137 -99 -138 -21 -10 8 -18 48 -15 27 3 45 1 45 -5 0 -6 -16 -52 -36 -104
-20 -51 -37 -97 -38 -103 -3 -9 -18 -49 -33 -85 -3 -8 -7 -19 -8 -25 -2 -5
-19 -53 -40 -107 l-37 -96 -46 -12 c-26 -6 -55 -13 -65 -15 -10 -3 -27 -7 -37
-10 -17 -5 -21 1 -35 50 -1 6 -14 46 -29 89 l-26 79 70 92 c39 50 70 93 70 96
0 2 -52 4 -116 4 l-117 -1 -61 93 c-34 51 -67 93 -73 93 -7 0 -12 -3 -11 -7 0
-5 -1 -15 -5 -23 -3 -8 -17 -52 -32 -98 -28 -86 -36 -94 -100 -106 -22 -4 -69
-18 -115 -34 -18 -6 -28 -9 -37 -11 -4 0 36 -33 89 -72 l96 -70 -3 -98 c-1
-54 -5 -103 -8 -108 -4 -6 -21 -13 -38 -17 -26 -5 -40 1 -89 39 -32 25 -60 45
-62 45 -3 0 -5 -17 -5 -37 -3 -131 3 -117 -68 -164 -61 -42 -63 -44 -42 -55
12 -7 25 -10 29 -8 3 2 9 0 13 -6 3 -5 16 -10 28 -10 41 0 63 -26 81 -95 16
-57 36 -95 36 -66 0 5 6 16 13 23 7 7 24 29 37 48 13 19 28 38 32 41 5 3 42 4
83 3 41 -1 75 1 75 5 0 3 -20 32 -44 64 -29 38 -42 64 -39 77 3 11 7 20 10 20
4 0 69 -47 89 -65 6 -5 28 -23 49 -40 21 -16 43 -35 49 -40 6 -6 29 -24 51
-40 66 -49 160 -127 163 -136 2 -5 9 -9 16 -9 15 0 15 -13 -9 -340 -11 -147
-15 -240 -11 -240 6 0 376 244 393 259 7 6 15 11 18 11 4 0 22 12 41 26 19 15
34 21 34 15 0 -6 6 -11 13 -11 6 0 122 -45 256 -100 133 -55 247 -100 251
-100 7 0 -2 39 -45 185 -9 28 -17 59 -19 70 -7 30 -64 236 -75 268 -8 23 -5
33 26 70 19 23 49 59 67 81 17 21 38 45 47 55 8 9 37 43 65 76 27 33 51 62 54
65 16 16 100 119 100 123 0 2 -30 5 -67 7 -38 1 -102 4 -143 6 -41 2 -138 6
-214 9 -77 3 -143 8 -147 10 -4 3 -35 51 -70 107 -34 57 -67 106 -73 110 -6 4
-8 8 -4 8 4 0 -15 34 -42 75 -28 41 -50 79 -50 85 0 5 -4 10 -10 10 -5 0 -10
5 -10 11 0 6 -9 24 -21 40 -11 16 -17 29 -12 30 4 1 44 3 88 5 44 2 91 5 105
7 21 2 60 -23 60 -38 0 -8 173 -225 180 -225 3 0 14 35 24 78 10 42 21 82 24
87 4 6 7 16 9 24 1 8 9 42 18 76 l17 62 87 28 c47 16 91 32 96 35 6 3 35 14
65 24 30 10 59 22 64 27 5 4 -13 21 -40 38 -27 16 -92 58 -144 93 l-96 63 -1
65 c-3 163 -8 270 -13 270 -3 0 -17 -8 -30 -17z m-1074 -1214 c6 -5 19 -10 30
-12 10 -2 27 -7 36 -12 10 -4 37 -13 60 -20 35 -10 39 -13 22 -19 -44 -14
-328 -85 -331 -83 -1 2 3 21 8 43 9 33 21 47 71 81 57 40 75 43 104 22z"/>
        <path d="M136 5704 l0 -76 -50 -37 c-28 -21 -59 -42 -69 -47 -15 -8 -12 -12
20 -23 123 -42 120 -40 134 -90 15 -57 16 -59 19 -68 1 -5 2 -11 1 -15 0 -5 5
-8 11 -8 7 0 29 23 48 51 19 28 41 54 50 58 8 5 45 6 83 4 37 -2 67 -1 67 2 0
11 -53 90 -68 103 -14 10 -14 18 -4 55 16 55 17 58 29 87 6 14 9 27 8 28 -2 2
-30 -4 -62 -14 -89 -27 -90 -27 -151 21 -31 25 -59 45 -62 45 -3 0 -5 -34 -4
-76z"/>
        <path d="M7783 5742 c-5 -205 -6 -208 -73 -244 -44 -24 -130 -80 -130 -84 0
-5 48 -25 67 -28 7 -1 16 -5 19 -9 4 -4 16 -7 26 -7 10 0 18 -5 18 -12 0 -6 3
-9 6 -5 4 3 19 0 35 -9 16 -8 29 -11 29 -7 1 23 22 -35 45 -127 15 -58 28
-106 30 -108 1 -2 35 38 75 88 67 85 80 95 105 90 6 -1 48 -4 95 -6 47 -3 90
-7 97 -9 18 -6 5 22 -41 90 -83 121 -80 98 -30 220 24 60 44 110 44 111 0 3
-70 -15 -100 -26 -24 -9 -52 -16 -110 -27 -20 -3 -42 10 -107 66 -46 38 -86
72 -91 75 -4 2 -8 -12 -9 -32z"/>
        <path d="M8451 5683 c-5 -112 -6 -115 -36 -139 -17 -13 -36 -24 -42 -24 -7 0
-13 -4 -13 -8 0 -5 -11 -14 -25 -20 -14 -6 -25 -15 -25 -19 0 -5 34 -23 75
-42 41 -18 75 -39 76 -45 0 -11 8 -52 13 -71 2 -5 6 -27 11 -47 4 -21 11 -38
16 -38 5 0 9 4 9 8 0 4 9 19 19 32 11 14 33 42 49 62 16 21 32 35 36 31 3 -3
20 -7 38 -8 18 -2 47 -4 63 -6 17 -2 32 0 34 5 2 4 -13 40 -34 80 l-39 73 32
77 31 77 -27 -3 c-15 -1 -38 -8 -51 -15 -13 -6 -29 -9 -36 -7 -7 3 -16 1 -19
-5 -11 -17 -38 0 -93 56 -29 29 -55 53 -56 53 -2 0 -5 -26 -6 -57z"/>
        <path d="M6377 5593 c-2 -4 -4 -39 -3 -77 1 -62 -1 -70 -24 -87 -14 -10 -30
-23 -37 -29 -6 -5 -26 -18 -45 -30 -18 -11 -31 -20 -28 -21 45 -7 157 -51 158
-62 2 -24 36 -137 42 -137 3 1 26 29 51 63 l46 62 84 -2 c46 -1 78 0 72 3 -7
3 -13 12 -13 20 0 8 -4 14 -8 14 -4 0 -19 18 -32 40 -14 22 -28 40 -32 40 -8
0 8 59 32 116 18 42 18 44 1 44 -10 0 -21 -3 -25 -7 -3 -4 -12 -8 -19 -10 -7
-1 -33 -8 -58 -14 -48 -12 -46 -13 -103 36 -6 6 -21 18 -33 28 -11 10 -23 15
-26 10z"/>
        <path d="M5858 5543 c-2 -5 -3 -40 -3 -79 l1 -71 -64 -42 c-35 -24 -60 -46
-56 -51 5 -4 36 -16 69 -26 56 -17 89 -40 79 -56 -2 -4 0 -9 5 -13 6 -3 8 -12
5 -19 -3 -8 -1 -17 5 -21 6 -3 11 -17 11 -30 0 -43 16 -35 62 29 l46 63 80 -3
81 -4 -45 65 c-39 56 -45 70 -39 98 4 17 11 37 15 42 5 6 11 27 15 48 l8 39
-29 -15 c-16 -7 -50 -20 -76 -27 -46 -12 -47 -12 -89 21 -24 19 -50 40 -57 47
-16 14 -20 15 -24 5z"/>
        <path d="M2121 5263 c-102 -305 -84 -275 -177 -302 -44 -13 -86 -25 -94 -27
-8 -2 -53 -15 -99 -28 -47 -14 -87 -24 -90 -24 -4 1 -19 -4 -36 -11 -16 -7
-42 -15 -58 -18 -43 -9 -41 -20 13 -55 27 -18 50 -36 50 -40 0 -5 6 -8 14 -8
8 0 16 -3 18 -7 2 -5 30 -28 63 -53 33 -25 62 -48 63 -52 2 -5 8 -8 13 -8 9 0
85 -55 99 -71 3 -3 14 -10 24 -16 21 -12 29 -60 13 -80 -6 -8 -6 -13 0 -13 5
0 9 -10 7 -22 -1 -13 -3 -23 -4 -23 -1 0 -4 -91 -10 -303 -1 -46 0 -86 4 -89
3 -3 14 1 23 10 10 8 63 47 118 86 55 38 105 73 110 78 6 5 33 24 60 42 28 19
60 43 71 53 26 23 49 25 89 8 17 -7 35 -14 40 -16 6 -1 37 -12 69 -24 l59 -23
-74 -34 c-41 -19 -94 -44 -119 -55 -25 -11 -72 -34 -105 -50 -33 -16 -62 -30
-65 -30 -5 0 -55 -22 -168 -75 l-72 -34 -138 82 c-75 45 -150 90 -167 99 -16
9 -60 36 -98 58 -37 23 -69 42 -72 42 -2 0 -24 14 -48 30 -25 17 -47 30 -49
30 -3 0 -4 -21 -2 -47 2 -27 3 -48 4 -48 3 0 8 -33 14 -100 3 -39 8 -81 11
-95 4 -23 12 -105 20 -190 2 -19 6 -52 9 -72 19 -123 27 -106 -99 -214 -44
-37 -82 -70 -85 -73 -6 -7 -136 -121 -189 -167 -19 -16 -42 -36 -51 -45 -9 -8
-26 -22 -37 -30 -12 -8 -19 -20 -15 -25 4 -6 48 -18 97 -27 73 -13 396 -78
455 -91 8 -2 33 -7 56 -11 35 -6 43 -12 54 -44 8 -20 13 -39 12 -43 -1 -5 2
-8 8 -8 5 0 10 -8 10 -18 0 -10 5 -23 11 -29 6 -6 11 -17 13 -24 1 -8 12 -36
24 -63 12 -26 54 -124 94 -217 40 -93 75 -169 80 -169 7 0 41 57 43 70 0 3 10
21 21 40 12 19 48 82 80 140 32 58 69 123 81 145 13 22 31 56 41 75 9 19 20
37 23 40 3 3 14 20 23 38 12 24 23 32 44 33 15 0 45 2 67 5 22 2 63 6 90 8 28
3 79 7 115 11 36 4 88 8 115 10 67 5 184 16 214 20 44 7 48 1 -99 155 -30 32
-85 91 -122 132 -36 40 -95 104 -131 142 l-64 69 10 41 c5 23 10 47 10 54 0
15 -5 16 61 -14 59 -27 70 -41 79 -104 3 -19 9 -46 14 -59 10 -24 10 -24 41
22 57 82 65 85 180 63 30 -6 28 3 -13 73 -38 64 -38 77 -7 151 29 66 27 71
-21 56 -23 -7 -46 -13 -52 -14 -5 -1 -18 -5 -28 -8 -12 -4 -33 10 -68 45 -28
28 -55 51 -60 51 -7 0 -15 -108 -10 -142 0 -7 -53 -49 -86 -66 -21 -12 -21
-11 -12 21 5 17 12 45 14 60 3 16 14 66 25 112 11 46 22 96 25 112 9 50 44
185 48 190 3 2 25 -2 49 -11 134 -47 180 -64 185 -70 11 -10 23 -7 23 7 0 7
-15 60 -34 118 -18 57 -48 151 -66 209 -17 58 -34 112 -37 120 -3 8 -7 21 -9
27 -2 11 39 71 106 153 29 36 151 191 177 226 12 16 21 33 20 39 -1 6 -79 10
-197 11 -107 1 -222 2 -255 3 l-60 1 -45 68 c-25 37 -46 73 -48 80 -2 6 -7 12
-12 12 -5 0 -12 9 -15 20 -3 11 -12 26 -18 32 -7 7 -41 56 -76 108 -35 52 -67
98 -71 103 -3 4 -39 -90 -79 -210z"/>
        <path d="M9509 5440 c-1 -41 -3 -73 -8 -123 0 -10 -32 -37 -72 -63 l-71 -47
48 -20 c73 -31 109 -52 110 -65 1 -7 2 -13 4 -14 2 -4 16 -69 24 -117 5 -29
21 -20 49 24 16 25 33 45 38 45 5 0 9 6 9 14 0 19 24 27 63 21 18 -2 51 -6 74
-9 48 -5 48 -4 -4 82 -37 62 -39 75 -19 123 17 44 27 73 27 79 1 3 5 11 11 18
13 15 5 15 -60 -2 -29 -8 -55 -15 -57 -15 -3 -1 -6 -1 -7 -2 -24 -7 -40 -4
-51 9 -7 10 -34 37 -60 62 l-47 44 -1 -44z"/>
        <path d="M3939 5349 c-1 -13 -2 -42 -4 -64 -1 -22 -3 -59 -4 -81 -1 -41 -3
-43 -83 -95 l-83 -52 90 -42 89 -41 17 -79 c12 -52 14 -84 8 -91 -18 -22 -64
-8 -119 35 l-55 44 -6 -34 c-3 -19 -2 -39 2 -44 5 -6 4 -16 0 -23 -4 -8 -6
-24 -4 -36 4 -19 -6 -30 -56 -62 -33 -21 -61 -44 -61 -50 0 -6 21 -17 48 -24
26 -7 51 -16 56 -21 5 -4 14 -5 20 -3 6 2 21 -29 36 -78 l25 -82 40 55 c57 77
54 76 120 72 44 -2 95 -17 188 -54 135 -55 139 -58 151 -130 10 -61 43 -190
51 -197 3 -4 13 2 21 13 17 24 61 78 92 114 13 14 35 40 48 58 14 17 31 30 37
28 41 -13 285 -28 269 -17 -8 5 -14 13 -14 18 -1 9 -52 94 -100 168 -15 22
-28 46 -28 52 0 6 24 67 54 135 30 68 53 125 51 127 -1 2 -49 -9 -106 -23 -57
-15 -112 -27 -121 -27 -10 1 -20 -3 -23 -8 -7 -12 -34 -1 -65 26 -14 13 -35
31 -46 41 -12 10 -43 37 -70 60 -27 23 -53 43 -58 45 -5 2 -11 -13 -12 -32 -2
-19 -6 -71 -9 -115 -6 -77 -10 -123 -13 -136 -1 -4 -10 -9 -19 -12 -10 -4 -36
-17 -58 -31 -22 -14 -51 -31 -65 -39 -14 -7 -37 -21 -52 -31 -25 -17 -26 -17
-33 3 -3 12 -11 21 -16 21 -5 0 -9 7 -9 15 0 8 -4 15 -8 15 -5 0 -14 11 -20
25 -11 23 -3 59 34 149 6 16 4 18 -15 13 -16 -4 -20 -2 -13 6 68 92 72 96 105
92 18 -2 60 -6 95 -10 l63 -7 -19 34 c-10 18 -34 59 -52 91 l-32 57 35 90 c19
50 32 92 28 94 -6 4 -147 -30 -162 -40 -4 -2 -13 2 -21 8 -139 133 -138 132
-139 107z"/>
        <path d="M8792 5200 c0 -39 -5 -77 -12 -85 -6 -8 -34 -28 -61 -46 -44 -28 -60
-54 -33 -54 5 0 35 -9 66 -20 62 -20 61 -20 88 -122 6 -24 14 -43 18 -43 4 0
27 28 51 61 l44 60 71 -1 c39 -1 74 -1 79 -1 6 1 -18 47 -33 61 -3 3 -15 19
-27 37 l-23 32 26 71 c14 40 24 74 21 76 -2 2 -35 -7 -74 -20 l-71 -24 -58 44
c-33 24 -62 44 -65 44 -4 0 -7 -32 -7 -70z"/>
        <path d="M7740 5043 c0 -94 -7 -136 -26 -149 -10 -7 -24 -17 -30 -22 -6 -5
-20 -12 -31 -16 -11 -4 -28 -15 -38 -26 -17 -19 -16 -20 40 -45 32 -14 61 -25
65 -25 15 0 31 -29 36 -62 2 -18 10 -55 17 -82 l13 -49 49 66 c27 37 54 68 59
68 14 2 8 2 89 -6 37 -4 67 -5 67 -2 0 3 -18 36 -40 75 -39 68 -47 92 -33 106
4 3 8 12 9 19 2 7 12 36 24 65 19 50 19 53 3 48 -10 -3 -47 -12 -82 -21 l-64
-16 -56 55 c-31 31 -60 56 -64 56 -4 0 -7 -17 -7 -37z"/>
        <path d="M803 4978 c-2 -44 -16 -246 -18 -258 -2 -14 -197 -140 -216 -140 -5
0 -9 -4 -9 -10 0 -5 -7 -10 -17 -10 -18 0 -12 -10 9 -14 7 -2 24 -8 38 -13 14
-6 49 -21 79 -33 30 -11 73 -29 96 -40 l41 -19 24 -103 c13 -57 24 -107 25
-113 0 -5 5 -23 9 -38 l8 -28 30 41 c16 22 34 40 39 40 5 0 9 6 9 14 0 8 3 16
8 18 4 2 27 26 50 53 32 36 53 52 78 56 19 3 34 3 34 0 0 -4 19 -7 43 -8 76
-3 156 -11 168 -19 18 -10 0 35 -31 81 -15 22 -30 47 -33 55 -4 8 -22 38 -40
65 l-34 51 57 132 58 132 -32 -6 c-17 -3 -58 -12 -91 -21 -33 -8 -70 -17 -82
-19 -12 -2 -34 -8 -47 -14 -29 -10 -49 4 -195 137 -49 46 -57 50 -58 31z"/>
        <path d="M9138 4863 c-11 -27 -33 -76 -48 -110 l-28 -61 -58 -12 c-33 -7 -63
-14 -69 -15 -5 -1 -29 -6 -53 -10 -51 -9 -59 -19 -32 -38 11 -8 52 -42 91 -77
64 -57 69 -65 64 -94 -3 -17 -8 -56 -11 -86 -3 -30 -7 -66 -8 -80 -4 -37 2
-42 32 -21 15 10 60 37 100 61 l72 42 53 -22 c28 -13 78 -35 110 -50 68 -34
67 -38 32 105 -27 116 -31 104 69 208 36 38 66 72 66 76 0 3 -8 7 -17 7 -62 1
-199 16 -212 24 -9 4 -40 51 -70 104 -29 53 -55 96 -57 96 -3 0 -14 -21 -26
-47z"/>
        <path d="M173 4858 c-1 -7 -2 -50 -3 -96 -2 -76 -5 -86 -29 -108 -14 -13 -30
-24 -35 -24 -5 0 -24 -11 -42 -25 -18 -14 -37 -25 -43 -25 -6 0 -11 -7 -11
-15 0 -8 3 -14 8 -13 4 1 37 -13 75 -30 37 -18 71 -32 75 -32 5 0 16 -37 26
-82 31 -145 23 -140 92 -51 36 47 67 77 77 77 65 -6 142 -16 148 -20 23 -14
15 22 -18 78 -21 35 -36 66 -35 71 1 4 -2 7 -7 7 -5 0 -11 9 -14 20 -3 11 0
20 6 20 6 0 8 2 5 6 -3 3 9 43 27 89 27 69 30 83 17 80 -10 -2 -52 -13 -95
-25 l-77 -20 -65 65 c-66 66 -81 75 -82 53z"/>
        <path d="M8550 4629 c-14 -11 -34 -27 -45 -36 -11 -9 -34 -28 -50 -42 -17 -14
-48 -39 -69 -56 -21 -16 -45 -36 -52 -42 -18 -18 -26 -17 -159 23 -66 19 -127
37 -135 39 -8 2 -25 7 -38 11 -23 7 -23 4 -5 -43 3 -10 7 -20 8 -23 1 -3 7
-18 14 -35 6 -16 28 -71 48 -122 l36 -92 -54 -83 c-29 -46 -56 -85 -59 -88 -3
-3 -18 -25 -35 -50 -16 -25 -33 -51 -39 -58 -7 -10 9 -12 85 -7 52 3 128 7
169 10 42 2 80 1 85 -3 6 -4 26 -27 45 -52 19 -25 37 -47 40 -50 3 -3 25 -32
50 -65 54 -72 77 -97 84 -87 6 9 19 81 15 84 -1 2 3 14 10 27 7 13 14 33 16
45 1 11 8 41 15 66 8 25 14 48 16 53 1 4 3 10 4 15 1 4 2 10 1 14 -1 10 40 37
64 41 11 2 27 7 35 10 8 4 62 23 120 43 58 20 107 38 109 39 2 2 -62 47 -143
99 l-146 96 -1 97 c-2 187 -4 243 -9 243 -3 -1 -16 -10 -30 -21z"/>
        <path d="M2990 4486 c0 -78 -7 -93 -53 -117 -11 -7 -26 -16 -31 -21 -6 -5 -20
-15 -31 -23 -19 -13 -17 -14 28 -26 26 -7 47 -17 47 -22 0 -4 3 -6 8 -4 4 3
17 1 29 -4 16 -6 27 -24 38 -66 28 -100 26 -99 65 -48 19 25 42 54 50 64 9 11
27 18 42 18 29 -2 32 8 -30 -132 -22 -49 -43 -90 -48 -91 -8 0 -55 -8 -115
-19 -9 -2 -34 -8 -54 -14 -21 -6 -42 -8 -47 -5 -4 3 -8 1 -8 -4 0 -9 7 -16
117 -111 l62 -54 -5 -46 c-2 -25 -7 -64 -10 -86 -10 -78 -12 -105 -8 -105 3 0
51 27 107 60 l103 60 61 -30 c33 -16 82 -39 107 -50 57 -24 56 -26 22 115 -12
48 -20 92 -18 102 2 7 25 36 52 64 28 29 50 56 50 61 0 4 6 8 13 8 7 0 18 9
24 19 12 19 15 18 99 -15 48 -19 94 -34 101 -34 14 0 22 -13 28 -47 2 -10 4
-18 5 -18 2 0 8 -24 15 -60 3 -16 11 -50 18 -74 l13 -43 45 53 c24 30 47 59
52 64 4 6 17 23 28 38 21 28 21 28 113 22 50 -3 103 -7 119 -9 15 -2 27 0 27
3 0 3 -27 47 -60 96 -33 50 -60 97 -60 105 0 9 15 51 34 95 18 44 36 90 40
101 l7 22 -73 -20 c-167 -46 -151 -46 -205 -2 -26 21 -50 41 -53 44 -3 3 -20
18 -38 35 -40 36 -48 28 -47 -50 0 -30 -3 -55 -7 -55 -4 0 -3 -11 2 -24 5 -13
6 -27 3 -30 -3 -3 -6 -15 -7 -26 -1 -12 -14 -28 -31 -38 -16 -9 -32 -20 -35
-23 -3 -3 -32 -22 -65 -42 -55 -32 -67 -36 -115 -32 -140 11 -172 14 -175 17
-13 13 -105 182 -105 192 0 9 10 12 31 10 39 -5 53 3 36 21 -8 7 -28 36 -46
63 l-32 50 23 58 c36 97 39 94 -58 63 l-65 -21 -52 39 c-82 62 -77 63 -77 -21z"/>
        <path d="M9619 4459 c0 -2 -2 -39 -3 -82 -1 -44 -6 -81 -13 -85 -44 -28 -113
-78 -113 -82 0 -3 30 -14 66 -24 73 -21 84 -33 104 -111 7 -27 16 -53 20 -58
3 -4 26 20 50 53 24 33 51 60 59 61 9 0 47 0 84 -1 l68 -1 -45 62 c-49 67 -51
75 -37 111 13 32 23 63 20 63 -1 0 3 11 10 24 12 22 11 23 -5 19 -11 -3 -47
-14 -81 -23 l-62 -18 -48 38 c-66 53 -73 58 -74 54z"/>
        <path d="M7688 4302 l-28 -68 -62 -14 c-35 -7 -66 -14 -70 -14 -21 -3 -12 -17
37 -57 l55 -44 -5 -74 c-3 -40 -8 -78 -11 -83 -8 -12 82 38 108 60 19 16 21
15 131 -32 43 -19 43 -19 21 70 l-17 65 44 47 c24 26 48 50 54 54 5 4 7 9 5
11 -5 4 -103 16 -140 17 -8 0 -31 29 -49 65 -19 36 -37 65 -40 65 -3 0 -18
-31 -33 -68z"/>
        <path d="M1079 4224 c0 -5 -2 -42 -3 -81 -1 -40 -4 -74 -7 -76 -2 -2 -30 -21
-61 -41 -32 -21 -58 -41 -58 -44 0 -4 33 -17 73 -30 l73 -23 23 -77 c25 -84
23 -84 71 -12 43 65 42 65 124 62 42 -2 76 0 76 3 0 4 -19 34 -42 67 l-42 60
27 75 c23 65 24 74 9 69 -9 -3 -30 -8 -47 -12 -16 -4 -42 -13 -57 -20 -25 -13
-30 -11 -80 28 -29 22 -59 45 -65 51 -7 5 -13 6 -14 1z"/>
        <path d="M4520 4163 c-1 -38 -3 -83 -4 -102 -1 -24 -10 -40 -31 -57 -17 -13
-35 -24 -42 -24 -6 0 -13 -4 -15 -8 -1 -4 -20 -18 -42 -31 l-38 -24 68 -33
c38 -18 74 -33 80 -33 6 -1 17 -7 23 -15 11 -13 15 -27 27 -86 3 -14 7 -33 10
-42 3 -10 8 -30 10 -45 3 -15 6 -29 7 -30 2 -1 29 34 62 78 l59 79 51 -5 c137
-16 135 -16 128 2 -3 10 -15 30 -25 45 -10 14 -18 31 -18 37 0 6 -4 11 -8 11
-11 0 -35 62 -32 85 1 11 7 26 12 33 6 6 7 12 3 12 -4 0 -3 6 2 13 13 16 46
107 41 112 -3 4 -128 -27 -158 -39 -11 -4 -40 17 -89 64 -40 38 -74 70 -76 70
-1 0 -3 -30 -5 -67z"/>
        <path d="M8951 4150 c-28 -70 -34 -76 -81 -84 -19 -4 -50 -10 -69 -14 l-34 -7
57 -50 57 -50 -7 -79 -6 -79 49 28 c26 15 55 34 63 41 12 10 27 7 88 -21 45
-21 72 -29 72 -21 0 6 -7 38 -15 69 -8 32 -15 62 -15 66 0 4 23 32 50 61 28
29 49 55 47 56 -2 2 -28 6 -58 9 -85 9 -94 13 -109 42 -8 16 -22 40 -32 54
-10 14 -15 29 -11 33 3 3 0 6 -8 6 -8 0 -25 -26 -38 -60z"/>
        <path d="M5878 4133 c-2 -4 -6 -39 -7 -78 -3 -61 -5 -96 -10 -141 0 -6 -44
-37 -96 -69 -52 -31 -95 -60 -95 -64 0 -3 49 -24 108 -46 l107 -40 13 -50 c7
-27 15 -59 17 -70 21 -113 25 -116 71 -59 21 27 44 54 49 60 6 6 21 25 34 43
l24 31 76 -5 c42 -4 95 -8 119 -10 41 -4 42 -3 31 18 -6 12 -21 36 -33 52 -12
17 -36 53 -54 81 l-32 51 45 106 c27 65 39 107 32 107 -7 -1 -58 -13 -113 -29
-75 -20 -105 -25 -116 -17 -15 11 -91 73 -112 91 -6 6 -21 18 -33 28 -11 10
-23 15 -25 10z"/>
        <path d="M409 4003 c-4 -170 -7 -196 -20 -204 -8 -5 -51 -32 -96 -61 -46 -28
-83 -54 -83 -58 0 -4 12 -12 28 -18 15 -5 63 -24 107 -41 l81 -32 12 -57 c6
-31 13 -61 15 -67 3 -5 8 -29 12 -52 4 -24 11 -43 15 -43 4 0 39 40 79 89 l72
89 47 -4 c103 -9 182 -12 182 -6 0 3 -27 48 -61 98 -65 100 -65 98 -29 179 57
129 60 140 28 131 -13 -4 -30 -9 -38 -11 -8 -2 -48 -13 -89 -25 -75 -21 -77
-21 -117 15 -6 6 -31 26 -54 45 -24 19 -52 43 -62 53 -25 24 -28 22 -29 -20z"/>
        <path d="M9552 3857 c-4 -56 -21 -79 -87 -117 -31 -18 -54 -34 -52 -36 6 -7
47 -14 85 -16 36 -1 45 -14 56 -81 l6 -35 -68 5 c-37 3 -78 6 -92 8 -14 2 -32
3 -40 4 -9 1 -42 48 -75 107 l-59 107 -13 -29 c-79 -175 -94 -205 -105 -203
-7 1 -24 -1 -38 -4 -23 -6 -36 -9 -115 -24 -16 -3 -37 -7 -45 -8 -8 -2 -17 -4
-19 -4 -4 -1 8 -13 113 -105 63 -57 67 -62 62 -95 -3 -20 -5 -49 -6 -65 0 -26
-2 -28 -27 -21 -15 3 -30 10 -33 13 -3 4 -23 16 -45 27 -39 20 -40 21 -49 93
-5 39 -12 72 -16 72 -3 0 -29 -24 -58 -53 l-53 -53 -62 13 c-94 19 -93 20 -53
-53 l37 -66 -37 -70 -36 -71 53 7 c30 5 65 9 79 11 19 2 37 -10 77 -52 29 -30
53 -51 54 -46 0 4 3 17 5 28 5 20 11 64 13 97 1 11 27 31 72 54 l72 36 -5 -51
c-3 -28 -3 -51 -1 -51 5 0 65 34 147 82 l60 36 40 -18 c23 -10 72 -32 110 -49
38 -18 70 -31 71 -29 1 2 -8 48 -21 103 -13 55 -24 109 -24 120 0 11 29 51 65
89 36 38 65 72 65 77 0 4 8 10 17 13 15 6 15 8 3 16 -22 13 73 108 115 115 16
2 48 7 69 10 22 3 42 7 44 10 2 2 -10 21 -28 43 l-31 39 31 53 c17 29 29 54
27 56 -2 3 -26 -5 -53 -17 -71 -30 -89 -32 -127 -9 -60 36 -72 34 -75 -13z"/>
        <path d="M3670 3660 c0 -71 -2 -80 -22 -91 -12 -6 -31 -20 -42 -30 -11 -11
-25 -19 -32 -19 -6 0 -17 -6 -23 -14 -10 -12 0 -18 56 -36 71 -24 85 -32 89
-52 1 -7 11 -40 21 -73 l19 -60 42 60 c24 33 51 63 60 66 9 4 48 5 85 3 77 -5
76 -10 14 74 l-39 54 25 71 c14 39 24 73 22 76 -3 2 -36 -6 -75 -18 l-71 -23
-34 26 c-19 15 -38 27 -42 28 -5 0 -14 9 -21 19 -24 35 -32 20 -32 -61z"/>
        <path d="M8110 3623 c-1 -43 -3 -94 -4 -114 -1 -39 -20 -69 -42 -69 -8 0 -14
-4 -14 -10 0 -5 -4 -10 -10 -10 -12 0 -129 -73 -130 -82 0 -4 25 -16 55 -27
30 -12 79 -30 108 -41 l53 -20 26 -112 c15 -62 25 -115 22 -120 -3 -4 -15 -3
-27 2 -12 5 -69 23 -127 40 -101 30 -116 35 -132 40 -137 42 -153 49 -156 67
-2 10 -8 22 -13 27 -5 6 -9 20 -9 33 0 13 -4 23 -8 23 -5 0 -9 6 -9 13 0 10
-38 136 -100 330 -16 51 -28 59 -38 27 -3 -11 -11 -20 -16 -20 -5 0 -9 -5 -9
-11 0 -6 -10 -24 -22 -39 -13 -15 -29 -36 -35 -46 -15 -22 -194 -277 -198
-282 -2 -2 -36 -3 -77 -2 -83 1 -95 1 -161 0 -27 0 -53 2 -58 5 -5 4 -9 2 -9
-4 0 -6 -9 -8 -22 -3 -27 9 -70 8 -87 -2 -6 -4 -11 -4 -11 1 0 4 -20 8 -45 8
-25 0 -45 -4 -45 -9 0 -5 53 -80 117 -165 65 -86 121 -160 125 -166 4 -5 19
-24 33 -41 14 -18 25 -36 25 -42 0 -6 -34 -111 -75 -234 -83 -244 -87 -258
-78 -258 6 0 131 42 173 57 8 3 20 7 25 9 6 1 74 25 153 52 133 47 143 49 159
34 9 -9 26 -24 39 -32 12 -8 97 -70 188 -137 92 -68 168 -123 170 -123 2 0 2
53 1 118 -8 342 -7 394 7 408 10 10 191 141 271 196 11 7 46 33 80 58 l60 44
-27 11 -27 11 23 30 c12 16 30 36 40 45 10 9 18 19 18 23 0 4 16 24 35 44 19
20 35 41 35 45 0 5 8 6 18 3 9 -2 64 -7 121 -11 l103 -7 -31 46 c-17 24 -31
49 -31 54 0 6 -4 12 -9 14 -4 2 -20 22 -34 45 -29 45 -29 41 11 133 8 19 15
41 15 48 0 6 5 12 10 12 6 0 7 3 4 7 -4 3 -3 11 2 17 4 6 11 19 14 29 6 15 3
17 -12 12 -11 -3 -28 -8 -38 -10 -10 -2 -32 -8 -50 -14 -17 -5 -34 -7 -37 -3
-3 3 -6 1 -6 -5 0 -5 -6 -10 -12 -10 -7 0 -27 -3 -43 -7 -22 -5 -36 -2 -50 11
-22 20 -120 101 -146 121 -14 11 -16 4 -19 -65z"/>
        <path d="M4243 3554 c3 -67 1 -77 -18 -86 -11 -6 -22 -14 -25 -17 -3 -3 -24
-19 -48 -35 l-43 -30 76 -26 c41 -15 77 -29 80 -31 2 -3 6 -17 9 -32 2 -14 8
-32 12 -38 4 -7 8 -21 9 -33 1 -11 3 -24 4 -28 3 -19 21 -4 61 52 l44 60 78
-3 c43 -2 78 -2 78 0 0 2 -20 33 -44 68 -25 34 -43 65 -41 67 3 2 6 13 8 24 2
10 9 32 15 47 7 15 15 39 18 52 l6 25 -73 -25 -73 -25 -33 22 c-18 13 -33 26
-33 31 0 4 -6 7 -14 7 -7 0 -19 7 -26 15 -23 28 -29 15 -27 -61z"/>
        <path d="M6270 3482 c-19 -14 -39 -31 -45 -37 -5 -6 -32 -29 -60 -50 -27 -22
-52 -42 -55 -45 -3 -3 -20 -16 -38 -29 -33 -23 -34 -23 -95 -7 -34 10 -69 20
-77 23 -8 3 -19 7 -25 9 -46 13 -124 35 -142 40 -23 6 -23 6 -9 -32 14 -39 45
-120 61 -159 5 -11 9 -22 10 -25 1 -3 9 -22 18 -44 9 -21 17 -45 17 -52 0 -15
-60 -104 -70 -104 -3 0 -16 13 -28 30 -23 30 -22 68 1 98 5 6 6 12 3 12 -4 0
-2 9 4 21 6 11 13 29 15 40 4 18 2 18 -31 4 -19 -8 -38 -14 -42 -15 -4 0 -24
-6 -45 -12 -25 -7 -41 -8 -45 -2 -14 20 -103 87 -108 81 -4 -3 -6 -39 -6 -79
l0 -73 -64 -44 c-36 -24 -63 -45 -61 -47 2 -2 34 -14 72 -27 75 -25 78 -28
105 -136 l11 -43 17 23 c9 13 21 29 27 34 7 6 21 24 33 41 17 25 28 30 61 31
23 0 41 -1 41 -2 0 -2 -16 -26 -35 -55 -19 -29 -35 -56 -35 -60 0 -5 35 -7 78
-4 42 2 118 6 169 8 l92 4 88 -115 c48 -63 95 -124 105 -136 16 -21 16 -20 29
23 7 25 13 50 15 55 8 39 36 143 41 155 3 8 8 26 10 40 2 14 10 30 16 36 7 7
77 35 157 64 80 29 149 55 154 57 4 3 -34 32 -85 65 -52 33 -117 76 -145 94
l-51 34 -2 72 c-1 40 -3 114 -4 165 -2 51 -5 94 -8 97 -2 3 -20 -7 -39 -22z"/>
        <path d="M568 3169 l-3 -82 -64 -43 -63 -44 33 -14 c19 -8 53 -19 76 -26 39
-12 42 -16 59 -74 10 -33 18 -65 18 -70 2 -21 23 -14 38 12 9 15 29 42 45 60
26 29 33 32 83 31 105 -2 104 -3 83 25 -10 13 -25 34 -33 46 -8 12 -22 29 -29
37 -13 14 -12 25 11 88 15 40 24 76 21 78 -3 3 -15 2 -27 -3 -13 -4 -45 -15
-73 -23 -47 -14 -53 -14 -70 1 -10 10 -37 32 -60 50 l-42 32 -3 -81z"/>
        <path d="M2950 3070 c-1 -3 -3 -12 -5 -20 -2 -8 -18 -51 -35 -95 -17 -44 -33
-84 -34 -90 -2 -5 -8 -23 -15 -40 -7 -16 -28 -73 -47 -125 -20 -52 -41 -106
-47 -120 -6 -14 -11 -28 -11 -32 -2 -16 -34 -28 -120 -44 -16 -3 -40 -10 -53
-15 -14 -5 -29 -7 -34 -3 -5 3 -9 1 -9 -4 0 -5 -6 -9 -12 -9 -7 0 -37 -5 -66
-12 -29 -8 -55 -11 -57 -9 -3 2 4 14 15 26 11 12 20 24 20 27 0 12 42 46 58
47 9 1 41 -2 70 -6 28 -4 52 -4 52 0 0 4 -16 36 -35 72 l-36 64 17 47 c10 25
20 51 24 56 4 6 10 18 13 28 6 16 3 18 -24 12 -17 -4 -39 -9 -48 -10 -9 -2
-16 -4 -16 -5 0 -1 -13 -4 -30 -6 -25 -3 -39 5 -82 49 -29 28 -53 49 -54 47
-1 -3 -3 -30 -5 -60 -7 -92 -10 -103 -29 -114 -11 -6 -25 -17 -33 -23 -7 -7
-17 -13 -21 -13 -4 0 -17 -8 -29 -18 -21 -18 -21 -19 46 -49 l68 -30 17 -72
c10 -40 16 -75 14 -78 -3 -2 -43 -13 -88 -24 -74 -18 -124 -39 -93 -39 6 0 22
-10 35 -21 13 -12 40 -33 59 -48 19 -14 41 -32 48 -39 8 -7 30 -25 50 -40 21
-15 39 -29 42 -32 3 -3 37 -30 75 -60 39 -30 81 -65 95 -77 14 -13 28 -23 33
-23 5 0 5 -39 2 -87 -3 -49 -8 -117 -10 -153 -3 -36 -7 -96 -10 -135 -3 -38
-8 -100 -10 -137 -3 -38 -3 -68 0 -68 3 0 73 45 155 100 82 55 154 100 159
100 5 0 11 4 13 8 2 5 36 30 76 56 56 35 79 45 95 39 12 -4 24 -7 27 -8 3 0
10 -3 15 -7 6 -3 78 -33 160 -66 83 -33 164 -65 180 -72 17 -7 44 -18 60 -25
17 -7 40 -16 52 -19 l22 -7 -20 73 c-12 40 -22 80 -24 89 -3 16 -35 130 -56
199 -6 19 -12 42 -13 50 -2 8 -5 22 -8 30 -19 55 -28 88 -28 101 0 14 29 53
110 148 25 29 52 61 60 71 8 10 35 41 60 71 25 29 53 61 63 71 9 10 17 20 17
23 0 3 11 18 24 32 30 32 25 44 -17 43 -34 -1 -215 6 -387 16 -58 3 -112 5
-122 5 -10 0 -47 49 -98 132 -46 73 -93 148 -105 167 -12 19 -40 63 -61 97
-58 92 -63 98 -64 93z"/>
        <path d="M1184 2980 c1 -22 -1 -40 -4 -40 -3 0 -5 -26 -4 -58 0 -58 -9 -92
-26 -92 -5 0 -39 -20 -76 -44 l-66 -45 54 -23 c108 -46 132 -62 134 -88 3 -38
14 -92 24 -124 6 -15 7 -32 4 -37 -11 -19 12 -8 26 12 8 12 30 39 48 61 18 22
36 47 40 55 5 7 17 14 28 15 27 1 157 -13 167 -19 4 -2 7 -1 7 2 0 11 -53 108
-67 123 -28 30 -28 74 -1 139 6 15 12 34 14 42 1 7 7 18 13 24 6 6 11 19 11
28 0 17 -5 16 -72 -2 -40 -11 -81 -22 -90 -25 -10 -3 -31 9 -55 32 -21 20 -54
52 -74 70 l-36 35 1 -41z"/>
        <path d="M9118 2937 l-3 -81 -63 -44 c-62 -43 -67 -51 -40 -56 49 -9 129 -42
132 -55 3 -9 12 -42 21 -73 9 -32 19 -58 23 -58 4 0 27 28 51 61 l44 60 78 -3
c44 -2 79 -2 79 0 0 2 -21 32 -46 68 l-46 64 26 67 c14 36 23 69 21 73 -2 4
-35 -3 -72 -15 -74 -24 -85 -22 -132 21 -14 13 -32 24 -39 24 -7 0 -11 4 -8 9
3 5 -1 11 -9 14 -12 5 -15 -9 -17 -76z"/>
        <path d="M5188 2799 l-3 -82 -63 -43 c-70 -48 -71 -46 31 -79 54 -18 58 -22
68 -60 15 -59 32 -105 39 -105 3 0 14 13 23 30 10 16 29 43 44 60 25 30 29 31
97 30 39 -1 75 -1 80 -1 4 1 -3 16 -16 34 -13 17 -35 46 -47 63 l-22 31 20 59
c11 32 23 68 27 78 6 16 4 18 -12 12 -10 -4 -45 -16 -76 -26 l-58 -18 -37 29
c-21 16 -43 32 -48 36 -6 5 -18 14 -27 21 -16 13 -17 7 -20 -69z"/>
        <path d="M8723 2791 l-30 -69 -72 -12 c-39 -6 -71 -14 -71 -17 0 -3 25 -28 55
-55 59 -54 58 -49 39 -165 -3 -18 -3 -33 0 -33 3 0 32 16 65 35 32 19 64 35
70 35 6 0 38 -13 70 -29 33 -16 62 -27 64 -24 3 2 -1 28 -9 56 -21 81 -18 97
31 147 25 25 45 48 45 53 0 7 -21 10 -87 11 -18 0 -33 4 -33 8 0 4 -6 5 -13 2
-9 -3 -25 17 -46 55 -17 33 -35 63 -40 65 -4 3 -21 -26 -38 -63z"/>
        <path d="M8168 2767 c-2 -6 -3 -40 -2 -74 l1 -63 -53 -40 c-29 -22 -58 -40
-64 -40 -28 0 0 -26 37 -35 23 -6 45 -13 49 -18 4 -4 15 -7 24 -7 18 0 26 -16
55 -108 l17 -53 24 33 c75 102 67 97 149 93 41 -1 75 0 75 2 0 3 -18 33 -41
66 -45 65 -45 77 -5 170 19 44 18 44 -75 16 l-69 -21 -47 39 c-62 51 -70 55
-75 40z"/>
        <path d="M6433 2602 c-1 -42 -2 -80 -2 -83 -1 -4 -27 -24 -58 -45 -61 -41 -89
-64 -78 -64 9 0 -11 -19 -65 -60 -25 -19 -54 -43 -65 -53 -56 -52 -133 -105
-141 -97 -5 5 -20 11 -34 14 -14 3 -56 15 -95 26 -38 12 -79 23 -89 25 -10 3
-34 9 -53 16 -19 6 -36 9 -38 7 -3 -3 90 -251 106 -280 5 -10 9 -24 9 -31 0
-11 -148 -237 -179 -273 -15 -18 -4 -22 52 -18 29 2 86 5 128 8 42 2 81 6 87
10 6 3 13 2 16 -3 3 -5 15 -7 26 -4 24 6 36 -6 153 -160 64 -84 83 -104 89
-90 17 48 21 59 22 68 3 32 61 232 70 242 6 7 76 35 155 63 78 27 147 53 153
56 9 5 -87 78 -104 79 -3 0 -18 10 -31 21 -14 12 -34 25 -46 29 -12 3 -21 11
-21 16 0 5 -6 9 -12 9 -7 0 -24 9 -38 20 -27 20 -25 5 -33 243 -2 54 0 100 4
103 5 2 25 -5 46 -16 21 -11 44 -20 51 -20 19 0 34 -42 47 -134 4 -25 10 -46
14 -46 4 0 31 29 59 64 42 53 56 64 74 60 47 -10 128 -12 128 -4 0 5 -16 36
-36 70 -19 33 -36 68 -36 78 -1 9 12 48 27 85 15 37 26 70 23 72 -2 3 -37 -5
-77 -16 l-73 -21 -31 29 c-16 15 -42 40 -57 56 -15 15 -31 27 -36 27 -5 0 -10
-35 -11 -78z"/>
        <path d="M869 2588 c-1 -40 -1 -76 -1 -80 1 -3 -28 -25 -64 -49 -36 -23 -61
-45 -57 -49 4 -4 38 -17 75 -29 55 -18 67 -27 74 -49 4 -15 8 -29 9 -32 1 -3
7 -24 14 -48 6 -23 16 -40 20 -38 5 3 25 30 46 61 21 30 45 56 54 56 9 1 47 0
85 -1 l68 -1 -23 33 c-13 18 -26 35 -29 38 -4 3 -14 19 -24 35 -16 29 -16 33
8 103 14 39 21 72 17 72 -4 0 -34 -9 -66 -20 -32 -11 -65 -20 -72 -20 -8 0
-41 21 -74 46 l-59 45 -1 -73z"/>
        <path d="M5545 2593 c0 -38 -3 -75 -7 -85 -4 -9 -35 -34 -68 -56 l-61 -39 28
-11 c15 -6 46 -16 68 -23 22 -7 45 -17 51 -21 10 -8 32 -69 37 -108 6 -37 18
-41 40 -13 12 15 25 30 29 31 5 2 8 9 8 16 0 7 9 21 21 32 17 15 34 18 95 16
41 -2 74 0 74 3 0 3 -18 30 -40 60 -22 30 -40 62 -40 72 1 20 31 110 43 131
12 17 -9 15 -70 -8 -29 -11 -53 -17 -53 -13 0 4 -5 2 -12 -5 -8 -8 -26 1 -74
38 -35 28 -65 50 -67 50 -2 0 -3 -30 -2 -67z"/>
        <path d="M4802 2623 c-6 -15 -41 -126 -78 -246 l-68 -217 -40 -11 c-23 -6 -69
-20 -104 -31 -34 -11 -68 -21 -75 -22 -6 -2 -19 -6 -27 -9 -20 -7 -148 -45
-182 -53 -16 -3 -28 -10 -28 -14 0 -4 34 -34 76 -66 42 -33 81 -64 88 -69 6
-6 56 -46 111 -89 55 -44 102 -80 104 -82 7 -6 7 -100 -1 -121 -4 -13 -3 -25
3 -28 5 -4 7 -11 3 -16 -7 -12 -14 -349 -7 -349 5 0 56 35 83 57 48 39 282
213 297 221 14 8 31 4 66 -12 26 -13 47 -22 47 -20 0 3 39 -12 105 -41 17 -7
73 -30 125 -50 52 -21 101 -39 107 -42 14 -6 9 44 -7 82 -10 22 -52 161 -56
186 -2 9 -17 59 -34 110 -16 51 -30 99 -30 105 0 9 142 214 187 269 16 20 89
120 96 132 5 7 1 12 -10 12 -10 0 -119 2 -243 4 l-225 5 -17 28 c-10 16 -22
36 -28 44 -51 75 -130 202 -130 209 0 5 -4 11 -8 13 -5 2 -27 34 -49 71 l-40
68 -11 -28z"/>
        <path d="M3979 2544 c-2 -19 -7 -101 -8 -136 -1 -32 -6 -39 -48 -64 -27 -15
-50 -30 -53 -34 -3 -4 -14 -11 -24 -17 -17 -10 -13 -14 40 -39 32 -15 62 -27
65 -26 13 3 39 -36 43 -64 5 -38 17 -95 22 -113 3 -9 24 11 57 54 l52 67 68
-6 c38 -3 73 -8 78 -12 5 -3 9 0 9 7 0 12 -51 111 -61 119 -21 16 -13 53 34
163 19 42 19 41 -20 26 -15 -7 -35 -13 -43 -13 -8 -1 -32 -5 -54 -10 -36 -8
-40 -6 -75 30 -53 56 -81 78 -82 68z"/>
        <path d="M8608 2413 c-2 -4 -6 -42 -7 -83 -3 -65 -20 -121 -36 -112 -3 1 -29
-13 -57 -33 l-52 -34 77 -35 c61 -28 78 -40 82 -61 3 -14 8 -37 11 -52 3 -16
8 -39 10 -52 9 -44 15 -42 66 23 l50 65 66 -5 c37 -3 73 -7 80 -9 21 -7 14 14
-29 86 l-41 69 22 58 c12 31 26 65 31 74 5 10 9 22 9 27 0 8 -118 -21 -141
-35 -6 -3 -14 -3 -18 2 -23 30 -119 114 -123 107z"/>
        <path d="M1255 2263 c1 -38 0 -75 -3 -83 -2 -9 -30 -34 -62 -55 -33 -22 -60
-43 -60 -47 0 -3 33 -17 73 -30 l72 -23 20 -72 c11 -40 22 -73 25 -73 3 0 26
27 51 60 40 54 47 59 79 58 20 -1 41 2 48 6 7 4 12 3 12 -1 0 -5 14 -9 30 -9
17 -1 30 2 30 6 0 4 -19 34 -43 66 l-43 59 16 50 c9 28 20 58 24 67 15 32 1
35 -69 13 l-70 -23 -30 22 c-16 12 -46 34 -66 49 l-36 27 2 -67z"/>
        <path d="M1807 2322 c-2 -4 -5 -41 -7 -82 -2 -68 -5 -114 -9 -147 0 -7 -6 -13
-11 -13 -6 0 -33 -16 -60 -35 -28 -19 -50 -32 -50 -28 0 5 -4 3 -8 -2 -4 -6
-20 -18 -35 -28 -15 -10 -25 -22 -22 -28 4 -5 11 -7 16 -4 5 4 9 1 9 -6 0 -7
3 -10 6 -7 3 4 37 -7 76 -23 39 -16 77 -29 84 -29 14 0 23 -25 54 -150 12 -47
23 -86 24 -88 2 -1 34 38 72 88 l69 91 118 -5 c68 -4 117 -2 117 3 0 5 -27 50
-60 100 l-60 91 25 55 c13 30 25 59 26 63 1 4 6 18 12 32 6 14 11 27 11 30 1
3 4 10 8 16 12 18 -1 23 -35 13 -18 -6 -41 -12 -52 -14 -11 -3 -43 -11 -70
-20 -65 -19 -65 -19 -102 13 -17 15 -45 38 -63 52 -18 14 -43 35 -56 47 -12
13 -25 19 -27 15z"/>
        <path d="M7871 2245 c-12 -25 -21 -47 -21 -51 0 -3 -13 -34 -29 -68 -22 -48
-33 -62 -52 -64 -26 -2 -64 -10 -64 -12 0 -2 -22 -6 -70 -14 -81 -13 -81 -14
-30 -62 26 -24 50 -44 53 -44 2 0 22 -17 43 -37 37 -36 38 -39 33 -88 -4 -27
-7 -66 -9 -85 -1 -19 -4 -35 -5 -35 -1 0 -3 -15 -4 -32 -1 -18 -1 -33 1 -33 9
0 89 47 107 63 11 9 25 17 32 17 6 0 22 8 35 18 32 24 30 24 160 -37 64 -30
106 -40 95 -22 -3 5 -13 40 -21 77 -8 38 -19 85 -24 105 -8 35 -7 38 70 120
43 46 78 87 79 92 0 4 -10 7 -22 8 -13 0 -32 2 -43 4 -22 4 -129 14 -158 14
-10 1 -21 9 -25 19 -10 25 -103 192 -107 192 -1 0 -12 -20 -24 -45z"/>
        <path d="M7239 2223 c-1 -16 0 -32 1 -38 2 -12 1 -34 -2 -61 -3 -21 -57 -74
-76 -74 -6 0 -16 -8 -21 -17 -6 -10 -11 -13 -11 -8 0 6 -4 3 -9 -4 -8 -12 5
-20 64 -38 56 -18 74 -28 80 -46 13 -42 15 -47 18 -59 2 -7 7 -25 12 -40 4
-16 10 -28 14 -28 3 0 22 24 41 53 19 28 42 56 50 62 8 5 48 8 89 6 82 -3 81
-8 18 76 -28 38 -37 58 -32 70 5 10 9 23 11 28 1 6 9 30 18 54 9 24 16 45 16
47 0 5 -34 -3 -84 -20 -26 -9 -54 -16 -62 -16 -15 0 -96 57 -102 73 -9 19 -32
5 -33 -20z"/>
        <path d="M6880 2069 c-8 -19 -29 -67 -47 -107 -18 -39 -33 -76 -33 -80 0 -5
-33 -15 -72 -22 -40 -8 -77 -15 -83 -16 -5 -1 -28 -6 -49 -11 -35 -7 -37 -10
-24 -23 22 -22 139 -124 150 -131 11 -7 18 -78 9 -94 -3 -5 -6 -26 -8 -45 -1
-19 -4 -54 -7 -77 -5 -42 -5 -42 19 -31 14 6 25 16 25 21 0 6 3 8 6 5 3 -3 37
14 77 38 39 24 75 44 80 44 4 0 29 -10 55 -21 26 -12 74 -34 108 -49 l60 -27
-27 116 c-16 72 -23 122 -18 131 5 8 40 49 79 90 38 41 70 78 70 82 0 4 -10 7
-22 7 -29 -2 -165 10 -198 16 -14 3 -30 16 -36 28 -6 12 -24 46 -40 75 -16 29
-36 67 -45 84 l-16 30 -13 -33z"/>
        <path d="M3790 1906 l0 -74 -40 -32 c-22 -17 -40 -29 -40 -26 0 3 -11 -4 -25
-16 -18 -15 -22 -24 -13 -29 7 -4 15 -6 19 -3 4 2 10 0 14 -6 4 -6 11 -8 16
-5 5 4 9 2 9 -2 0 -5 9 -9 21 -10 37 -3 66 -30 75 -70 14 -68 23 -93 34 -93 5
0 15 10 21 23 7 12 26 39 42 59 l29 37 75 -2 c41 -2 76 -1 78 1 2 2 -16 31
-41 64 -47 64 -48 73 -16 148 31 70 30 70 -55 44 l-76 -23 -56 44 c-32 25 -60
45 -64 45 -4 0 -7 -33 -7 -74z"/>
        <path d="M1498 1873 c-3 -4 -4 -39 -3 -78 l1 -70 -64 -43 c-35 -24 -61 -46
-58 -49 3 -3 36 -16 73 -28 l67 -23 22 -71 c12 -38 19 -73 16 -76 -4 -3 0 -3
8 0 8 4 34 33 57 65 l42 58 75 -4 c42 -3 76 -2 76 1 0 8 -52 86 -71 108 -15
17 -15 24 12 94 l28 75 -27 -6 c-42 -10 -46 -11 -57 -18 -5 -3 -25 -9 -42 -13
-28 -6 -40 -1 -80 31 -69 54 -71 56 -75 47z"/>
        <path d="M8206 1755 l0 -75 -63 -41 c-34 -23 -61 -45 -58 -49 3 -5 31 -16 63
-25 31 -9 62 -21 69 -27 10 -8 44 -103 47 -130 3 -20 17 -15 37 14 13 18 26
35 29 38 3 3 12 16 21 29 14 22 21 24 92 22 42 -1 77 2 77 7 0 4 -18 33 -40
62 -22 29 -40 58 -40 64 1 15 33 108 44 124 14 23 0 23 -76 -1 l-75 -24 -25
21 c-55 47 -83 66 -93 66 -6 0 -10 -30 -9 -75z"/>
        <path d="M4153 1663 c-1 -45 -6 -79 -13 -81 -6 -2 -16 -9 -23 -15 -6 -7 -29
-23 -49 -37 -21 -14 -38 -28 -38 -31 0 -4 33 -17 73 -30 l72 -24 19 -72 c11
-43 23 -70 30 -67 6 2 22 20 35 39 37 55 59 77 70 71 5 -4 12 -2 15 2 3 5 27
6 53 2 75 -12 79 -3 29 66 l-44 60 25 73 c14 40 23 74 21 76 -2 2 -24 -3 -48
-12 -74 -26 -105 -31 -116 -19 -27 27 -65 56 -74 56 -6 0 -10 5 -10 10 0 6 -6
10 -13 10 -9 0 -13 -21 -14 -77z"/>
        <path d="M2015 1575 c0 -66 -3 -78 -23 -95 -12 -11 -27 -20 -32 -20 -6 0 -10
-3 -10 -7 0 -5 -14 -16 -32 -26 -37 -21 -31 -29 43 -52 72 -22 77 -25 83 -60
3 -16 10 -41 15 -55 5 -14 12 -34 15 -44 6 -17 9 -15 32 15 75 102 66 97 149
93 41 -1 75 0 75 2 0 7 -61 96 -77 112 -9 9 -10 19 -3 31 5 10 6 21 3 25 -3 3
-1 6 6 6 7 0 10 4 7 8 -2 4 4 27 14 50 11 23 17 42 14 42 -3 0 -39 -10 -79
-21 l-73 -22 -59 47 c-33 25 -61 46 -64 46 -3 0 -5 -34 -4 -75z"/>
        <path d="M3100 1442 c-2 -48 -3 -100 -4 -116 0 -26 -11 -36 -91 -88 -49 -32
-97 -58 -105 -58 -24 0 18 -25 85 -49 140 -51 128 -39 159 -168 16 -63 30
-113 31 -111 2 2 36 43 75 93 53 66 78 90 93 89 194 -12 217 -12 210 -1 -3 7
-33 51 -65 99 l-58 87 16 38 c8 21 21 52 28 68 23 52 40 104 35 109 -2 3 -51
-8 -108 -24 -108 -30 -120 -30 -160 8 -28 27 -112 96 -126 104 -10 6 -13 -13
-15 -80z"/>
        <path d="M5545 1439 c1 -50 -2 -75 -12 -83 -8 -6 -19 -16 -26 -21 -7 -6 -29
-21 -49 -35 -45 -29 -44 -42 3 -53 72 -16 109 -34 110 -52 2 -23 4 -29 10 -40
4 -5 9 -27 13 -47 4 -21 10 -38 15 -38 4 0 27 27 51 60 42 57 45 60 87 60 44
0 52 -7 31 -28 -9 -9 -8 -12 8 -12 11 0 46 -10 79 -23 49 -19 61 -28 67 -52 4
-17 12 -51 19 -77 l12 -47 50 65 c32 42 57 64 71 65 11 0 47 0 80 -1 l58 -1
-18 30 c-10 17 -22 31 -26 31 -4 0 -8 5 -8 12 0 6 -9 21 -20 33 -19 21 -20 24
-4 66 9 24 17 49 18 54 2 6 6 18 11 28 4 10 5 20 3 22 -3 3 -36 -6 -75 -19
l-70 -24 -63 49 c-35 27 -65 49 -66 49 -1 0 -2 -26 -2 -57 0 -106 -1 -113 -17
-113 -8 0 -15 -4 -15 -10 0 -25 -32 -6 -56 33 -15 23 -31 44 -35 47 -5 3 1 30
12 60 12 30 23 65 25 77 5 24 12 25 -98 -10 l-46 -14 -56 43 c-31 24 -60 44
-64 44 -5 0 -8 -32 -7 -71z"/>
        <path d="M6379 1508 c-1 -2 -3 -30 -4 -63 -2 -33 -4 -67 -4 -75 -1 -8 -25 -31
-54 -50 -82 -55 -82 -52 2 -80 42 -14 76 -29 77 -35 1 -24 39 -135 46 -135 4
0 15 12 25 28 19 29 24 35 52 70 17 20 26 22 95 20 42 -2 76 -1 76 2 0 3 -20
33 -44 67 l-43 63 25 70 c14 39 23 73 20 75 -3 3 -21 -2 -41 -10 -21 -8 -37
-12 -37 -9 0 4 -6 1 -14 -5 -26 -22 -62 -15 -107 19 -24 19 -45 38 -47 43 -3
6 -20 10 -23 5z"/>
        <path d="M7637 1433 c-2 -5 -3 -38 -2 -75 1 -37 -1 -71 -4 -76 -3 -4 -34 -27
-69 -49 l-63 -42 43 -13 c24 -6 46 -17 50 -23 4 -5 8 -7 8 -3 0 4 13 2 29 -3
24 -8 31 -20 45 -72 26 -95 27 -95 75 -27 23 33 48 61 54 61 7 1 42 1 80 0 37
-2 67 1 67 6 0 4 -19 33 -42 63 -41 54 -41 54 -28 100 7 25 13 51 13 58 0 6 4
12 8 12 3 0 9 9 12 21 5 18 2 20 -26 13 -18 -3 -47 -13 -66 -20 -49 -20 -57
-18 -121 31 -32 25 -61 42 -63 38z"/>
        <path d="M6965 1207 l0 -81 -62 -40 c-34 -23 -62 -44 -62 -47 -1 -3 18 -11 42
-18 23 -7 50 -17 59 -22 10 -5 24 -9 31 -9 8 0 23 -32 38 -82 l24 -82 28 43
c40 60 78 101 88 95 13 -8 91 -11 117 -5 22 6 22 7 5 26 -23 25 -73 99 -73
107 0 4 5 19 11 35 6 15 10 30 11 33 0 3 4 11 10 18 6 6 8 12 4 12 -3 0 -1 11
4 25 10 27 2 33 -18 13 -7 -7 -12 -9 -12 -5 0 3 -18 0 -40 -8 -22 -8 -40 -12
-40 -8 0 3 -7 0 -15 -7 -14 -12 -29 -7 -55 20 -7 7 -72 55 -85 62 -6 4 -10
-24 -10 -75z"/>
        <path d="M4298 1237 c-7 -7 -60 -51 -118 -97 -58 -46 -107 -88 -111 -92 -4 -7
-103 19 -251 65 -27 8 -48 13 -48 10 0 -3 -7 0 -15 7 -28 23 -27 3 4 -76 42
-109 52 -139 52 -141 0 -2 9 -24 20 -49 l20 -47 -28 -41 c-15 -23 -31 -49 -35
-58 -4 -10 -13 -18 -19 -18 -7 0 -10 -3 -6 -6 3 -3 -16 -36 -42 -73 -26 -36
-51 -72 -56 -80 -7 -13 66 -12 293 3 l43 2 67 -85 c36 -47 71 -91 77 -97 5 -6
21 -27 35 -47 14 -20 28 -37 31 -37 3 0 13 28 23 63 27 92 29 102 27 102 -1 0
2 12 8 28 6 15 13 40 16 55 7 31 13 55 15 62 1 3 2 8 2 11 -1 3 36 18 81 34
45 15 93 32 107 38 14 6 27 11 30 12 3 0 29 9 58 19 l53 18 -33 24 c-18 14
-84 57 -145 96 l-113 70 -1 42 c-4 145 -7 282 -8 289 -1 11 -18 8 -33 -6z"/>
        <path d="M4976 1192 c-3 -10 -6 -46 -7 -82 -3 -76 -6 -90 -25 -90 -8 0 -14 -3
-14 -7 0 -5 -23 -21 -50 -38 -28 -16 -50 -32 -50 -35 0 -5 11 -10 101 -49 39
-16 47 -25 53 -53 3 -18 8 -43 11 -55 3 -13 7 -33 10 -45 9 -40 21 -39 51 4
59 87 63 90 119 83 27 -3 62 -8 78 -10 15 -3 27 -2 27 1 0 4 -18 39 -41 77
-22 39 -38 78 -36 86 3 9 16 46 30 84 18 45 22 67 14 67 -7 0 -42 -9 -78 -19
l-67 -19 -61 58 c-47 46 -61 55 -65 42z"/>
        <path d="M6541 1147 c-32 -75 -45 -102 -54 -108 -4 -3 -40 -12 -79 -19 l-70
-12 28 -25 c16 -14 42 -36 58 -49 31 -27 34 -45 22 -133 l-8 -54 49 28 c26 16
57 34 68 41 17 10 29 8 80 -16 60 -29 90 -37 81 -22 -5 8 -12 39 -22 97 -3 17
-7 33 -7 37 -1 3 17 26 40 51 60 63 59 69 -12 74 -74 6 -86 12 -111 60 -10 21
-22 40 -26 41 -5 2 -8 10 -8 17 0 27 -16 23 -29 -8z"/>
        <path d="M2553 1008 c0 -35 -1 -70 -2 -79 -1 -9 -30 -36 -66 -60 l-65 -44 77
-26 77 -25 19 -65 c10 -35 22 -68 27 -72 4 -5 27 19 51 52 l44 59 78 -2 c42
-1 77 0 77 3 0 3 -18 31 -40 62 -22 32 -40 64 -40 73 0 8 9 38 20 66 32 80 30
82 -46 55 -36 -13 -73 -21 -82 -17 -9 3 -39 23 -67 44 -27 21 -52 38 -56 38
-3 0 -5 -28 -6 -62z"/>
        <path d="M5734 893 c-10 -27 -23 -57 -30 -68 -6 -11 -17 -37 -24 -57 -13 -42
-20 -45 -170 -73 -56 -10 -80 -17 -80 -21 0 -6 34 -37 87 -80 65 -54 91 -84
88 -102 -2 -9 -4 -17 -5 -17 0 0 -3 -22 -4 -50 -2 -27 -7 -74 -11 -102 l-6
-53 78 46 c43 26 87 53 98 60 29 21 44 18 148 -31 53 -25 99 -45 103 -45 3 0
3 12 -1 28 -4 15 -9 38 -11 52 -3 14 -12 54 -20 89 -16 70 -18 65 46 132 45
47 100 112 98 115 -2 1 -46 5 -98 9 -52 4 -105 8 -118 9 -14 2 -29 14 -38 31
-40 77 -99 175 -105 175 -4 0 -15 -21 -25 -47z"/>
        <path d="M3219 788 c-1 -29 0 -65 1 -80 1 -22 -9 -33 -59 -67 -33 -23 -62 -45
-65 -49 -3 -5 24 -17 59 -27 70 -20 91 -36 99 -77 2 -14 9 -35 14 -45 5 -10 7
-23 5 -30 -2 -6 0 -14 6 -17 5 -4 31 21 56 54 l47 61 71 -2 c50 -2 72 1 75 10
3 8 0 16 -5 20 -5 3 -24 28 -42 54 l-33 48 26 70 c14 39 26 72 26 74 0 6 -29
-2 -93 -24 l-57 -20 -65 50 -65 50 -1 -53z"/>
        <path d="M6236 644 c1 -71 0 -76 -25 -92 -14 -9 -28 -19 -31 -22 -3 -3 -21
-16 -41 -30 l-37 -24 52 -17 c28 -9 63 -19 77 -23 22 -5 29 -16 48 -81 12 -41
25 -75 29 -75 4 0 25 28 47 61 l40 60 82 -3 c93 -3 93 -3 25 80 l-35 43 26 77
c14 42 24 78 23 79 -2 2 -35 -8 -74 -21 l-70 -24 -51 35 c-28 20 -51 40 -51
44 0 5 -8 9 -18 9 -15 0 -17 -9 -16 -76z"/>
        <path d="M5055 541 c1 -85 -3 -92 -90 -147 l-46 -29 73 -24 c40 -13 76 -29 81
-35 7 -12 28 -77 34 -110 2 -11 6 -22 9 -25 5 -6 40 33 75 84 l24 34 77 -3
c43 -2 78 0 78 3 0 4 -20 34 -44 67 l-43 60 23 63 c35 92 34 93 -43 65 -38
-13 -71 -24 -74 -24 -3 0 -35 22 -71 49 l-64 49 1 -77z"/>
        <path d="M4523 420 c0 -44 -2 -82 -4 -83 -2 -2 -32 -23 -67 -47 l-63 -43 78
-27 c64 -22 78 -31 84 -53 4 -14 4 -28 1 -31 -3 -3 -1 -6 5 -6 6 0 13 -18 17
-40 3 -22 9 -40 12 -40 9 0 54 53 54 62 0 15 63 68 72 62 12 -7 117 -9 123 -2
3 2 -15 32 -39 65 l-44 61 24 66 c33 92 34 91 -23 69 -16 -5 -30 -9 -58 -16
-5 -1 -16 -6 -23 -11 -13 -8 -58 18 -116 69 -16 14 -30 25 -31 25 -1 0 -2 -36
-2 -80z"/>
    </g>
</svg>
